<svg version="1.1" fill="#f5bd1f" id="Layer_1" xmlns="http://www.w3.org/2000/svg" xmlns:xlink="http://www.w3.org/1999/xlink" x="0px" y="0px"
	 viewBox="0 0 14.78 16.23" style="enable-background:new 0 0 14.78 16.23;" xml:space="preserve">
<style type="text/css">
	.st0{fill:#525252;}
	.st1{fill:#525252;stroke:#525252;stroke-miterlimit:10;}
</style>
<g>
	<path class="st0" d="M3.23,3.85V0.78C3.23,0.35,2.88,0,2.45,0S1.67,0.35,1.67,0.78v3.07C0.7,4.17,0,5.09,0,6.17s0.7,2,1.67,2.32
		v6.96c0,0.43,0.35,0.78,0.78,0.78s0.78-0.35,0.78-0.78V8.49C4.2,8.17,4.9,7.25,4.9,6.17S4.2,4.17,3.23,3.85z M3.23,7.39
		C3.01,7.54,2.74,7.62,2.45,7.62S1.89,7.54,1.67,7.39C1.27,7.13,1,6.68,1,6.17s0.27-0.96,0.67-1.22C1.89,4.8,2.16,4.72,2.45,4.72
		S3.01,4.8,3.23,4.95C3.63,5.21,3.9,5.66,3.9,6.17S3.63,7.13,3.23,7.39z"/>
	<path class="st0" d="M8.17,9.85V0.78C8.17,0.35,7.82,0,7.39,0S6.61,0.35,6.61,0.78v9.07c-0.97,0.32-1.66,1.24-1.66,2.32
		s0.69,2,1.66,2.32v0.96c0,0.43,0.35,0.78,0.78,0.78s0.78-0.35,0.78-0.78v-0.96c0.97-0.32,1.67-1.24,1.67-2.32S9.14,10.17,8.17,9.85
		z M8.17,13.39c-0.22,0.15-0.49,0.23-0.78,0.23s-0.56-0.09-0.78-0.24c-0.4-0.25-0.66-0.7-0.66-1.21s0.26-0.96,0.66-1.21
		c0.22-0.15,0.49-0.24,0.78-0.24s0.56,0.08,0.78,0.23c0.4,0.26,0.67,0.71,0.67,1.22S8.57,13.13,8.17,13.39z"/>
	<path class="st0" d="M13.12,1.85V0.78c0-0.43-0.35-0.78-0.78-0.78s-0.78,0.35-0.78,0.78v1.07c-0.97,0.32-1.67,1.24-1.67,2.32
		s0.7,2,1.67,2.32v8.96c0,0.43,0.35,0.78,0.78,0.78s0.78-0.35,0.78-0.78V6.49c0.96-0.33,1.66-1.25,1.66-2.32S14.08,2.18,13.12,1.85z
		 M13.12,5.38c-0.22,0.15-0.49,0.24-0.78,0.24c-0.29,0-0.56-0.08-0.78-0.23c-0.4-0.26-0.67-0.71-0.67-1.22s0.27-0.96,0.67-1.22
		c0.22-0.15,0.49-0.23,0.78-0.23c0.29,0,0.56,0.09,0.78,0.24c0.4,0.25,0.66,0.7,0.66,1.21S13.52,5.13,13.12,5.38z"/>
</g>
</svg>
