<?xml version="1.0" encoding="utf-8"?>
<!-- Generator: Adobe Illustrator 23.0.5, SVG Export Plug-In . SVG Version: 6.00 Build 0)  -->
<svg version="1.1" id="Layer_1" xmlns="http://www.w3.org/2000/svg" xmlns:xlink="http://www.w3.org/1999/xlink" x="0px" y="0px"
	 viewBox="0 0 16.03 16.22" style="enable-background:new 0 0 16.03 16.22;" xml:space="preserve">
<style type="text/css">
	.st0{fill:#525252;}
	.st1{fill:#525252;stroke:#525252;stroke-miterlimit:10;}
</style>
<path class="st0" d="M3.88,3.07c0.44-0.44,0.95-0.69,1.58-0.57C5.52,2.52,5.6,2.52,5.64,2.55c0.07,0.05,0.12,0.13,0.18,0.2
	c-0.09,0.04-0.18,0.12-0.26,0.1C5.18,2.77,4.82,2.78,4.49,3C4.33,3.11,4.08,3.18,4.2,3.47C3.95,3.86,4.01,4.11,4.49,4.2
	c0.04,0.01,0.07,0.12,0.08,0.18C4.62,4.69,4.66,5,4.69,5.3c0.04,0.33-0.16,0.66-0.49,0.73C4.08,6.05,3.93,6,3.8,5.97
	C3.65,5.93,3.51,5.86,3.33,5.79C3.36,6.11,3.39,6.4,3.41,6.7C3.49,7.77,3.4,8.82,3.06,9.85c-0.36,1.06-0.98,1.91-1.9,2.55
	c-0.17,0.12-0.33,0.29-0.45,0.46c-0.64,0.98-0.1,2.02,1.06,2.09c0.52,0.03,1.01-0.09,1.47-0.3c0.72-0.33,1.42-0.7,2.14-1.05
	c0.26-0.13,0.52-0.26,0.79-0.35c0.2-0.07,0.25-0.18,0.25-0.38c-0.01-1.43,0-2.87,0-4.3c0-2.49,0-4.98,0-7.47
	C6.41,0.36,6.77,0,7.52,0c1.93,0,3.86,0,5.79,0c0.69,0,1.07,0.38,1.07,1.07c0,2.76,0,5.52,0,8.28c0,0.72,0,1.44,0,2.16
	c0,0.93,0,1.87,0.01,2.8c0,0.05-0.01,0.1-0.01,0.17c-2.65,0-5.28,0-7.96,0c0-0.28,0-0.54,0-0.87c-0.43,0.21-0.81,0.4-1.19,0.57
	c-0.77,0.36-1.52,0.76-2.31,1.04c-0.42,0.15-0.93,0.17-1.38,0.12c-0.69-0.07-1.24-0.43-1.44-1.13c-0.22-0.77,0.02-1.44,0.58-2
	c0.08-0.08,0.16-0.14,0.25-0.2c0.77-0.53,1.3-1.24,1.64-2.12c0.49-1.26,0.5-2.55,0.34-3.86C2.89,5.97,2.81,5.87,2.75,5.86
	C2.55,5.82,2.52,5.7,2.54,5.53C2.59,5.15,2.63,4.77,2.66,4.4c0.02-0.26,0.11-0.46,0.29-0.64C3.14,3.56,3.3,3.34,3.5,3.16
	c0.08-0.08,0.21-0.1,0.32-0.14C3.84,3.03,3.86,3.05,3.88,3.07z M7.51,5c0,0.78,0,1.55,0,2.33c0,0.45,0.16,0.62,0.62,0.62
	c1.53,0,3.06,0,4.6,0c0.46,0,0.62-0.16,0.62-0.62c0-1.53,0-3.06,0-4.6c0-0.45-0.17-0.62-0.62-0.62c-1.53,0-3.06,0-4.6,0
	c-0.46,0-0.62,0.16-0.62,0.62C7.51,3.49,7.51,4.24,7.51,5z M3.62,4.56C3.55,4.84,3.47,5.1,3.4,5.36C3.39,5.4,3.39,5.44,3.39,5.5
	c0.19,0.07,0.37,0.15,0.55,0.22c0.25,0.09,0.49-0.08,0.48-0.35c-0.01-0.6-0.04-0.64-0.63-0.77C3.75,4.59,3.7,4.58,3.62,4.56z
	 M5.35,14.94c-0.21,0-0.4,0.02-0.51,0.23c-0.29,0.51,0.01,1.05,0.59,1.05c2.58,0,5.16,0,7.74,0c0.76,0,1.52,0.01,2.27-0.01
	c0.16,0,0.37-0.05,0.46-0.16c0.2-0.25,0.15-0.57,0.06-0.85c-0.08-0.25-0.32-0.26-0.54-0.26c-1.67,0-3.34,0-5.01,0
	C8.72,14.95,7.03,14.95,5.35,14.94z M10.41,3.31c-0.38,0.71-0.81,1.39-1,2.19c-0.1,0.4,0.11,0.82,0.46,1.04
	c0.36,0.23,0.82,0.22,1.17-0.03c0.35-0.25,0.56-0.68,0.4-1.09C11.16,4.7,10.82,4,10.51,3.29C10.47,3.3,10.44,3.3,10.41,3.31z"/>
</svg>
