<?xml version="1.0" encoding="utf-8"?>
<!-- Generator: Adobe Illustrator 23.0.5, SVG Export Plug-In . SVG Version: 6.00 Build 0)  -->
<svg version="1.1" id="Layer_1" xmlns="http://www.w3.org/2000/svg" xmlns:xlink="http://www.w3.org/1999/xlink" x="0px" y="0px"
	 viewBox="0 0 16.04 11.65" style="enable-background:new 0 0 16.04 11.65;" xml:space="preserve">
<style type="text/css">
	.st0{fill:#525252;}
	.st1{fill:#525252;stroke:#525252;stroke-miterlimit:10;}
</style>
<path class="st0" d="M15.2,10.9c-0.1-0.08-0.13-0.14-0.11-0.26c0.17-0.82,0.33-1.65,0.5-2.47c0.05-0.26,0.1-0.52,0.16-0.79
	c-0.44-0.1-0.86-0.2-1.28-0.3c0.01-0.05,0.02-0.1,0.04-0.15c0.34,0.08,0.68,0.15,1.01,0.23c0.01-0.04,0.02-0.06,0.03-0.08
	c0.13-0.55,0.26-1.1,0.38-1.65c0.02-0.1,0.08-0.24-0.16-0.31c-0.19-0.04-0.37-0.09-0.56-0.13c0.1-0.43,0.2-0.84,0.29-1.25
	c0.1-0.47,0.21-0.93,0.27-1.4c0.06-0.47-0.12-0.74-0.52-0.91C15.13,1.37,15,1.34,14.88,1.31c-1.25-0.29-2.5-0.58-3.74-0.87
	C10.49,0.3,9.85,0.14,9.2,0.02C8.69-0.07,8.42,0.1,8.26,0.59c-0.13,0.38-0.2,0.78-0.3,1.17C7.88,2.08,7.81,2.4,7.73,2.72L7.71,2.83
	c0,0.02-0.01,0.03-0.01,0.05C7.67,3.01,7.64,3.12,7.61,3.24C7.35,3.19,7.1,3.13,6.84,3.07c-0.15,0.67-0.3,1.32-0.46,1.98
	c0.43,0.1,0.86,0.2,1.29,0.3C7.66,5.41,7.64,5.46,7.63,5.51C7.12,5.39,6.61,5.27,6.1,5.15c-0.17,0.73-0.33,1.45-0.5,2.18
	C4.85,7.18,4.3,7.47,3.81,7.99c-0.68,0.71-1.38,1.4-2.09,2.09c-0.36,0.36-0.75,0.7-1.12,1.04c-0.19,0.17-0.38,0.33-0.6,0.53h16.01
	c0.01-0.01,0.02-0.03,0.03-0.04C15.76,11.37,15.49,11.12,15.2,10.9z M9.11,0.78c1.96,0.45,3.91,0.9,5.89,1.36
	c-0.16,0.68-0.31,1.35-0.47,2.03c-1.97-0.45-3.92-0.9-5.89-1.36C8.8,2.13,8.95,1.47,9.11,0.78z M7.44,5.11
	c-0.36,0-0.67-0.31-0.67-0.67c0-0.36,0.3-0.66,0.67-0.67c0.36,0,0.67,0.31,0.67,0.67C8.11,4.81,7.81,5.11,7.44,5.11z M13.69,9.94
	c-0.06-0.04-0.12-0.07-0.17-0.1c-0.68-0.41-1.32-0.9-2.06-1.19c-0.53-0.21-1.06-0.42-1.64-0.45C9.54,8.19,9.31,8.28,9.11,8.49
	C8.78,8.83,8.44,9.16,8.09,9.51C7.72,9.14,7.36,8.78,7,8.42C6.98,8.39,6.97,8.34,6.97,8.31C7.09,7.81,7.2,7.31,7.32,6.8
	c0.17,0.19,0.32,0.36,0.48,0.53c0.05,0.06,0.13,0.11,0.21,0.13c1.76,0.41,3.52,0.81,5.28,1.21c0.06,0.01,0.14,0,0.19-0.03
	c0.18-0.08,0.36-0.18,0.57-0.28C13.93,8.9,13.82,9.41,13.69,9.94z M14.14,6.06c0-0.37,0.3-0.66,0.67-0.66c0.37,0,0.66,0.3,0.66,0.67
	c0,0.37-0.3,0.66-0.67,0.66C14.43,6.73,14.14,6.44,14.14,6.06z"/>
</svg>
