<?xml version="1.0" encoding="utf-8"?>
<!-- Generator: Adobe Illustrator 23.0.5, SVG Export Plug-In . SVG Version: 6.00 Build 0)  -->
<svg version="1.1" id="Layer_1" xmlns="http://www.w3.org/2000/svg" xmlns:xlink="http://www.w3.org/1999/xlink" x="0px" y="0px"
	 viewBox="0 0 16 15.99" style="enable-background:new 0 0 16 15.99;" xml:space="preserve">
<style type="text/css">
	.st0{fill:#525252;}
	.st1{fill:#525252;stroke:#525252;stroke-miterlimit:10;}
</style>
<path class="st0" d="M16,7.97c0.02,4.4-3.51,8-7.87,8.02C3.72,16.01,0.1,12.52,0,8.3C-0.1,3.65,3.53,0.15,7.72,0
	C12.24-0.15,16.01,3.49,16,7.97z M9.55,7.55C9.7,6.88,9.33,6.23,9.86,5.67c0.09-0.1-0.02-0.5-0.16-0.66C9.5,4.78,9.16,4.81,9,5.06
	C8.89,5.24,8.91,5.53,8.94,5.75C8.95,5.89,9.16,6,9.17,6.13C9.2,6.59,9.18,7.05,9.18,7.52c-0.73,0-1.4,0-2.13,0
	c0.13-0.65-0.24-1.3,0.31-1.86c0.09-0.09-0.03-0.53-0.18-0.64C7.05,4.9,6.66,4.93,6.53,5.05c-0.13,0.13-0.2,0.54-0.1,0.66
	c0.5,0.58,0.15,1.21,0.27,1.84c-0.66,0-1.23,0.01-1.81-0.01c-0.1,0-0.3-0.11-0.29-0.15C4.65,6.86,4.37,6.28,4.8,5.75
	c0.11-0.14,0.07-0.55-0.06-0.7C4.63,4.92,4.2,4.9,4.08,5.01C3.93,5.14,3.83,5.59,3.92,5.69c0.3,0.32,0.26,0.66,0.26,1.02
	c0,0.69,0,1.38,0,2.07c0,0.36,0.05,0.71-0.26,1.03c-0.1,0.1-0.02,0.53,0.12,0.65c0.14,0.12,0.52,0.12,0.67,0
	c0.14-0.11,0.24-0.54,0.14-0.65C4.33,9.22,4.67,8.58,4.58,7.96c0.74,0,1.4,0,2.13,0c-0.12,0.65,0.22,1.31-0.31,1.9
	c-0.08,0.09,0.05,0.51,0.2,0.64c0.13,0.11,0.51,0.09,0.63-0.03c0.14-0.14,0.22-0.55,0.12-0.66C6.83,9.23,7.17,8.59,7.07,7.96
	c0.17-0.01,0.27-0.02,0.38-0.02c0.56,0,1.12,0,1.74,0C9.1,8.59,9.41,9.25,8.9,9.84c-0.09,0.1,0.02,0.54,0.16,0.64
	c0.15,0.11,0.53,0.09,0.67-0.03c0.13-0.12,0.2-0.54,0.1-0.66C9.34,9.19,9.67,8.56,9.6,7.93c0.62,0,1.16-0.01,1.71,0.01
	c0.12,0,0.35,0.1,0.34,0.15c-0.03,0.55,0.24,1.12-0.19,1.65c-0.11,0.14-0.06,0.53,0.06,0.71c0.19,0.27,0.52,0.24,0.75,0
	c0.21-0.22,0.23-0.46,0.05-0.74c-0.13-0.2-0.18-0.44-0.25-0.67c-0.03-0.09,0-0.19,0-0.29c0-1.18-0.02-1.2-1.22-1.2
	C10.44,7.55,10.05,7.55,9.55,7.55z M11.85,12.34c0.11,0.16,0.21,0.33,0.34,0.47c0.06,0.07,0.18,0.08,0.27,0.12
	c0.02-0.1,0.09-0.23,0.05-0.28c-0.18-0.26-0.16-0.49-0.04-0.78c0.06-0.15-0.07-0.5-0.22-0.61c-0.18-0.13-0.49-0.16-0.71-0.11
	c-0.1,0.02-0.17,0.33-0.2,0.51c-0.03,0.2-0.03,0.42,0,0.62c0.03,0.23,0.12,0.45,0.18,0.67c0.08-0.18,0.16-0.37,0.25-0.55
	C11.76,12.38,11.78,12.38,11.85,12.34z M9.24,11.81c-0.02-0.06-0.04-0.12-0.06-0.17c0.12-0.02,0.24-0.06,0.36-0.07
	c0.11-0.01,0.22,0,0.33,0c-0.04-0.11-0.05-0.25-0.13-0.32c-0.3-0.3-0.81-0.15-0.88,0.28c-0.06,0.32-0.09,0.69,0.01,0.99
	c0.06,0.19,0.36,0.4,0.58,0.43c0.14,0.02,0.45-0.25,0.46-0.41c0.02-0.2-0.16-0.43-0.3-0.62C9.54,11.83,9.37,11.84,9.24,11.81z
	 M6.27,3.17c0.05,0.01,0.1,0.01,0.15,0.02c0.04-0.04,0.08-0.1,0.12-0.13c0.1-0.07,0.2-0.13,0.31-0.19c-0.02,0.12,0,0.27-0.07,0.37
	c-0.1,0.16-0.27,0.27-0.38,0.43C6.3,3.81,6.24,3.98,6.15,4.15C6.34,4.21,6.52,4.32,6.7,4.31c0.21-0.01,0.41-0.12,0.62-0.19
	C7.14,4.04,6.97,3.95,6.77,3.85C6.9,3.7,7.05,3.54,7.18,3.37c0.21-0.29,0.2-0.58-0.08-0.8C6.82,2.35,6.53,2.38,6.34,2.65
	C6.25,2.78,6.29,2.99,6.27,3.17z M4.6,12.94c0.08-0.11,0.29-0.27,0.29-0.43c-0.01-0.36-0.12-0.71-0.21-1.06
	c-0.02-0.09-0.11-0.22-0.18-0.24c-0.08-0.01-0.21,0.07-0.26,0.15c-0.2,0.3-0.39,0.62-0.57,0.93c-0.16,0.27-0.06,0.4,0.25,0.43
	C4.12,12.74,4.31,12.84,4.6,12.94z M8.87,3.16c0.06,0,0.12,0.01,0.18,0.01c0.04-0.03,0.07-0.06,0.11-0.09
	c0.11-0.07,0.22-0.14,0.33-0.2C9.43,2.99,9.34,3.1,9.32,3.21c-0.02,0.11,0,0.23,0.03,0.34c0.03,0.11,0.1,0.2,0.15,0.31
	c-0.1-0.05-0.21-0.09-0.31-0.14C9.1,3.68,9,3.64,8.91,3.61c-0.02,0.1-0.09,0.27-0.06,0.3c0.18,0.15,0.4,0.39,0.58,0.37
	C9.61,4.26,9.84,4,9.91,3.79c0.08-0.25,0.08-0.57,0.01-0.82c-0.05-0.2-0.24-0.44-0.42-0.49c-0.15-0.05-0.41,0.1-0.56,0.23
	C8.85,2.79,8.89,3,8.87,3.16z M6.91,10.97c-0.17,0.16-0.42,0.28-0.42,0.42c-0.02,0.28-0.21,0.65,0.23,0.82
	c0.12,0.05,0.23,0.14,0.34,0.22c-0.12,0.05-0.24,0.1-0.35,0.16c-0.09,0.06-0.17,0.14-0.26,0.21c0.09,0.06,0.2,0.18,0.25,0.16
	c0.25-0.1,0.57-0.18,0.69-0.37c0.19-0.3-0.01-0.57-0.33-0.72c-0.09-0.05-0.15-0.16-0.23-0.24c0.06-0.05,0.13-0.11,0.19-0.16
	c0.1-0.07,0.21-0.13,0.31-0.2C7.23,11.19,7.11,11.11,6.91,10.97z M4.03,2.62c0.06,0.37,0.11,0.63,0.15,0.89
	C4.2,3.68,4.16,3.86,4.2,4.03c0.02,0.1,0.13,0.18,0.2,0.26c0.05-0.09,0.15-0.17,0.16-0.26c0.02-0.36,0.03-0.73,0-1.09
	c-0.01-0.16-0.1-0.31-0.15-0.46C4.25,2.54,4.09,2.6,4.03,2.62z"/>
</svg>
