<?xml version="1.0" encoding="utf-8"?>
<!-- Generator: Adobe Illustrator 23.0.5, SVG Export Plug-In . SVG Version: 6.00 Build 0)  -->
<svg version="1.1" id="Layer_1" xmlns="http://www.w3.org/2000/svg" xmlns:xlink="http://www.w3.org/1999/xlink" x="0px" y="0px"
	 viewBox="0 0 13.79 19.55" style="enable-background:new 0 0 13.79 19.55;" xml:space="preserve">
<style type="text/css">
	.st0{fill:#525252;}
	.st1{fill:#525252;stroke:#525252;stroke-miterlimit:10;}
</style>
<path class="st0" d="M1.39,18.34c-0.43-3.48-0.87-6.97-1.32-10.45C-0.17,6.01,0.12,5.69,2,5.72C2.43,5.73,2.59,5.91,2.67,6.3
	c0.42,1.99,0.89,3.97,1.27,5.97c0.2,1.05,0.3,2.13,0.35,3.2c0.04,0.88-0.41,1.2-1.32,1.31c-0.36,0.04-0.76,0.31-1.01,0.59
	c-0.31,0.35-0.13,0.77,0.11,1.16c0.17,0.27,0.27,0.58,0.47,1.02C1.68,19.36,1.47,18.92,1.39,18.34z M1.46,6.93
	C1.41,7.08,1.28,7.25,1.31,7.37C1.37,7.63,1.51,7.86,1.63,8.1C1.7,7.96,1.78,7.82,1.9,7.61C1.75,7.38,1.61,7.15,1.46,6.93z
	 M4.73,16.59c2.68-0.29,5.36-0.56,8.03-0.82c0.17-0.02,0.38,0,0.5,0.09c0.42,0.32,0.68,1.54,0.41,1.99
	c-0.25,0.43-0.52,0.87-0.87,1.21c-0.25,0.24-0.65,0.46-0.99,0.46c-2.87,0.04-5.74,0.03-8.62,0.03c-0.37,0-0.55-0.17-0.5-0.55
	c1.28-0.24,1.55-0.82,0.94-2.12C4.01,16.77,4.37,16.62,4.73,16.59z M11.99,17.43c-0.2-0.07-0.4-0.2-0.6-0.2
	c-0.19,0-0.39,0.14-0.58,0.22c0.18,0.11,0.35,0.22,0.6,0.36C11.63,17.67,11.81,17.55,11.99,17.43z M1.54,3.96
	C2.38,4.29,2.63,3.88,2.73,3.3C2.87,2.48,2.99,1.65,3.1,0.83C3.15,0.46,2.93,0.3,2.57,0.25C2.16,0.19,1.76,0.08,1.34,0.01
	C0.97-0.05,0.75,0.1,0.68,0.51C0.53,1.39,0.35,2.27,0.16,3.15C0.08,3.52,0.22,3.76,0.58,3.79c0.47,0.04,0.55,0.29,0.51,0.68
	C1.06,4.68,1.06,4.91,1.09,5.12c0.02,0.1,0.15,0.18,0.22,0.27C1.39,5.3,1.52,5.21,1.53,5.11C1.55,4.76,1.54,4.41,1.54,3.96z
	 M2.13,17.84c0.03,0.46,0.29,0.73,0.75,0.76c0.48,0.03,0.74-0.26,0.79-0.71c0.05-0.43-0.32-0.8-0.77-0.8
	C2.42,17.09,2.19,17.37,2.13,17.84z"/>
</svg>
