<?xml version="1.0" encoding="utf-8"?>
<!-- Generator: Adobe Illustrator 23.0.5, SVG Export Plug-In . SVG Version: 6.00 Build 0)  -->
<svg version="1.1" id="Layer_1" xmlns="http://www.w3.org/2000/svg" xmlns:xlink="http://www.w3.org/1999/xlink" x="0px" y="0px"
	 viewBox="0 0 15.95 12.65" style="enable-background:new 0 0 15.95 12.65;" xml:space="preserve">
<style type="text/css">
	.st0{fill:#525252;}
	.st1{fill:#525252;stroke:#525252;stroke-miterlimit:10;}
</style>
<path class="st0" d="M15.95,3.74c-1.17,1.96-2.37,3.91-3.5,5.89c-0.33,0.59-0.7,0.92-1.39,0.78c-0.07-0.01-0.14,0-0.24,0.01
	c0.12,0.39,0.24,0.75,0.33,1.12c0.05,0.21,0.07,0.44,0.06,0.67c-0.01,0.28-0.21,0.43-0.47,0.43c-0.25,0-0.41-0.15-0.47-0.4
	c-0.14-0.53-0.29-1.06-0.42-1.6c-0.05-0.18-0.14-0.24-0.32-0.24c-0.4,0.01-0.8,0-1.22,0c0.13,0.46,0.25,0.9,0.37,1.34
	c0.02,0.08,0.03,0.16,0.04,0.24c0.03,0.37-0.14,0.62-0.44,0.65c-0.3,0.03-0.46-0.19-0.54-0.57c-0.11-0.51-0.28-1.02-0.44-1.52
	c-0.02-0.07-0.15-0.14-0.23-0.14c-0.41-0.01-0.82-0.01-1.3-0.01c0.08,0.23,0.16,0.42,0.21,0.61c0.09,0.36,0.17,0.73,0.21,1.1
	c0.03,0.3-0.19,0.53-0.46,0.52c-0.28-0.01-0.42-0.17-0.49-0.46c-0.13-0.55-0.29-1.09-0.46-1.62c-0.02-0.07-0.2-0.15-0.3-0.14
	C4.1,10.45,3.9,10.29,3.73,9.99C2.51,7.93,1.29,5.87,0.07,3.82C0.05,3.79,0.02,3.76,0,3.74c0-0.09,0-0.19,0-0.28
	C0.14,3.3,0.27,3.13,0.42,2.98c3.65-3.43,9.24-3.97,13.45-1.26c0.75,0.48,1.39,1.15,2.07,1.73C15.95,3.55,15.95,3.64,15.95,3.74z
	 M14.85,3.67c-1.67-1.5-3.56-2.4-5.76-2.63c-2.91-0.3-5.48,0.51-7.72,2.38c-0.2,0.17-0.26,0.29-0.11,0.55
	C2.31,5.7,3.34,7.44,4.38,9.18C4.43,9.28,4.5,9.37,4.57,9.47C4.75,8.91,4.92,8.38,5.1,7.86C5.26,7.4,5.25,6.94,5.1,6.48
	C5.02,6.2,4.93,6,4.58,6.06c-0.08,0.01-0.2-0.07-0.24-0.15C4.31,5.86,4.37,5.72,4.42,5.66c0.24-0.26,0.5-0.5,0.75-0.76
	c0.17-0.18,0.31-0.17,0.48,0c0.2,0.21,0.42,0.41,0.62,0.63c0.1,0.11,0.15,0.24,0.23,0.37C6.35,5.97,6.21,6.02,6.07,6.08
	C6.05,6.08,6.03,6.1,5.98,6.14c0.54,1.15-0.09,2.2-0.39,3.31c0.55,0,1.05,0,1.5,0c0.18-0.54,0.34-1.06,0.52-1.57
	C7.78,7.39,7.77,6.91,7.6,6.42C7.52,6.2,7.46,6.02,7.16,6.06C7.07,6.07,6.95,5.99,6.9,5.92C6.87,5.87,6.92,5.74,6.98,5.68
	c0.26-0.28,0.53-0.54,0.8-0.81C7.93,4.72,8.07,4.76,8.2,4.9c0.24,0.25,0.49,0.48,0.72,0.73c0.07,0.08,0.15,0.23,0.11,0.29
	C9,6,8.85,6.03,8.75,6.06C8.68,6.08,8.61,6.08,8.5,6.08C8.9,7.04,8.66,7.92,8.31,8.8C8.23,9,8.19,9.22,8.13,9.44
	c0.55,0,1.04,0,1.49,0c0.17-0.51,0.31-1,0.48-1.47c0.2-0.53,0.2-1.05,0.01-1.59C10.04,6.18,9.97,6.02,9.7,6.06
	C9.62,6.06,9.5,5.98,9.46,5.9C9.43,5.86,9.5,5.73,9.55,5.67c0.25-0.27,0.52-0.52,0.77-0.78c0.16-0.16,0.3-0.14,0.45,0.02
	c0.18,0.19,0.38,0.36,0.55,0.56c0.12,0.13,0.2,0.3,0.3,0.45c-0.17,0.05-0.33,0.11-0.5,0.16c-0.02,0.01-0.04,0.03-0.07,0.05
	c0.34,0.89,0.17,1.75-0.19,2.6c-0.09,0.22-0.13,0.46-0.2,0.69c0.5,0.13,0.82,0.03,1.04-0.43c0.28-0.57,0.64-1.1,0.96-1.65
	C13.39,6.12,14.11,4.91,14.85,3.67z"/>
</svg>
