<?xml version="1.0" encoding="utf-8"?>
<!-- Generator: Adobe Illustrator 23.0.5, SVG Export Plug-In . SVG Version: 6.00 Build 0)  -->
<svg version="1.1" id="Layer_1" xmlns="http://www.w3.org/2000/svg" xmlns:xlink="http://www.w3.org/1999/xlink" x="0px" y="0px"
	 viewBox="0 0 16 17.99" style="enable-background:new 0 0 16 17.99;" xml:space="preserve">
<style type="text/css">
	.st0{fill:#525252;}
	.st1{fill:#525252;stroke:#525252;stroke-miterlimit:10;}
</style>
<path class="st0" d="M15.57,13.79c-0.1,0.38-0.33,0.47-0.66,0.34c-0.72-0.27-1.27-0.17-1.67,0.57c-0.14,0.25-0.22,0.38-0.09,0.67
	c0.57,1.27,0.76,0.93-0.55,1.75c-0.68,0.42-0.56,0.39-0.97-0.18c-0.38-0.52-0.72-0.78-1.41-0.55c-0.39,0.13-0.59,0.23-0.69,0.64
	c-0.24,1.05-0.27,1.06-1.35,0.86c-1.01-0.18-0.83-0.09-0.79-0.95c0.03-0.56-0.04-0.94-0.63-1.09c-0.13-0.03-0.24-0.17-0.37-0.2
	c-0.14-0.03-0.32-0.04-0.43,0.02c-0.3,0.17-0.57,0.4-0.87,0.58C5,16.3,4.79,16.29,4.73,16.22c-0.39-0.39-0.75-0.81-1.13-1.23
	c0.38-0.43,0.7-0.81,1.03-1.19c-0.15-0.38-0.28-0.75-0.45-1.11c-0.05-0.1-0.19-0.19-0.3-0.21c-0.34-0.05-0.7-0.05-1.04-0.11
	c-0.11-0.02-0.26-0.17-0.27-0.28c-0.05-0.37-0.04-0.75-0.07-1.12c-0.03-0.41,0.13-0.63,0.56-0.61c0.73,0.02,1.22-0.25,1.28-1.04
	c0.01-0.06,0.03-0.13,0.07-0.18C4.53,8.94,4.46,8.8,4.29,8.67c-0.33-0.25-0.65-0.51-1.01-0.8c0.47-0.58,0.81-1.01,1.18-1.42
	c0.06-0.07,0.26-0.08,0.36-0.03c0.38,0.2,0.75,0.44,1.12,0.66C6.1,6.97,6.23,6.82,6.4,6.77C7.04,6.55,7.15,6.12,7.05,5.5
	C6.94,4.78,6.99,4.75,7.71,4.61C9.12,4.33,8.79,4.24,9.2,5.46C9.33,5.83,9.5,5.94,9.85,5.94c0.3,0,0.61,0.08,0.91,0.11
	c0.05,0,0.1-0.14,0.16-0.21c0.24-0.33,0.48-0.67,0.73-1.03c0.39,0.2,0.75,0.36,1.1,0.56c0.57,0.33,0.62,0.36,0.34,0.94
	c-0.3,0.61-0.33,1.09,0.27,1.5c0.06,0.04,0.1,0.12,0.14,0.18c0.12,0.21,0.27,0.22,0.49,0.15c0.3-0.11,0.62-0.19,0.94-0.24
	c0.12-0.02,0.33,0.08,0.38,0.18c0.18,0.35,0.31,0.73,0.47,1.1c0.12,0.28,0.09,0.47-0.22,0.62c-0.34,0.16-0.78,0.29-0.94,0.56
	c-0.16,0.28-0.03,0.72-0.03,1.09c0,0.01-0.01,0.03,0,0.04c0.07,0.12,0.12,0.28,0.22,0.33c0.37,0.2,0.76,0.37,1.2,0.58
	C15.84,12.91,15.69,13.35,15.57,13.79z M9.31,7.51C7.27,7.5,5.59,9.15,5.58,11.18c-0.01,2.03,1.64,3.7,3.68,3.72
	c2.03,0.02,3.7-1.64,3.71-3.68C12.99,9.18,11.35,7.52,9.31,7.51z M1.84,0.29c0.16-0.09,0.34-0.13,0.5-0.21
	C2.68-0.1,2.87,0.03,3.02,0.36c0.2,0.43,0.97,0.51,1.25,0.13C4.5,0.18,4.72,0.15,5.01,0.36C5.11,0.43,5.2,0.5,5.31,0.55
	c0.27,0.14,0.31,0.32,0.18,0.6C5.24,1.69,5.63,2.29,6.21,2.29c0.28,0,0.44,0.08,0.46,0.38C6.68,2.81,6.7,2.95,6.73,3.09
	C6.8,3.44,6.65,3.61,6.31,3.68c-0.48,0.1-0.71,0.8-0.42,1.2C5.97,5,6.13,5.21,6.09,5.26c-0.2,0.28-0.43,0.55-0.71,0.75
	c-0.08,0.06-0.36-0.1-0.52-0.2C4.52,5.6,3.84,5.85,3.72,6.25C3.68,6.4,3.61,6.67,3.54,6.68C3.19,6.7,2.84,6.68,2.51,6.6
	C2.42,6.58,2.37,6.28,2.35,6.1C2.3,5.68,1.68,5.29,1.29,5.46C1.14,5.52,0.88,5.63,0.83,5.57C0.6,5.3,0.39,5,0.25,4.68
	C0.22,4.6,0.45,4.38,0.58,4.26c0.27-0.26,0.19-1-0.14-1.18C-0.07,2.8-0.07,2.8,0.12,2.25c0.04-0.11,0.09-0.22,0.12-0.33
	c0.07-0.2,0.2-0.3,0.41-0.22C1,1.84,1.21,1.7,1.48,1.47c0.34-0.29,0.23-0.58,0.17-0.98C1.69,0.44,1.75,0.34,1.84,0.29z M2.45,3.33
	c-0.01,0.49,0.42,0.91,0.92,0.9c0.47-0.01,0.88-0.44,0.87-0.91c-0.01-0.47-0.42-0.87-0.9-0.87C2.85,2.44,2.45,2.84,2.45,3.33z"/>
</svg>
