<?xml version="1.0" encoding="utf-8"?>
<!-- Generator: Adobe Illustrator 23.0.5, SVG Export Plug-In . SVG Version: 6.00 Build 0)  -->
<svg version="1.1" id="Layer_1" xmlns="http://www.w3.org/2000/svg" xmlns:xlink="http://www.w3.org/1999/xlink" x="0px" y="0px"
	 viewBox="0 0 15.98 16.27" style="enable-background:new 0 0 15.98 16.27;" xml:space="preserve">
<style type="text/css">
	.st0{fill:#525252;}
	.st1{fill:#525252;stroke:#525252;stroke-miterlimit:10;}
</style>
<path class="st0" d="M7.99,0c0.21,0.07,0.42,0.12,0.62,0.21c2.18,1,4.37,2,6.55,3.01c0.15,0.07,0.3,0.13,0.44,0.2
	c0.47,0.23,0.51,0.79,0.07,1.08c-0.16,0.11-0.34,0.19-0.51,0.27c-2.14,0.98-4.28,1.96-6.43,2.94c-0.49,0.23-0.97,0.24-1.47,0
	C5.07,6.7,2.87,5.7,0.67,4.69C0.55,4.64,0.43,4.58,0.32,4.51C-0.12,4.23-0.1,3.67,0.36,3.42c0.18-0.1,0.38-0.17,0.57-0.26
	C3.08,2.18,5.24,1.18,7.39,0.2C7.58,0.11,7.78,0.07,7.99,0z M2.08,11c-0.59,0.27-1.18,0.54-1.76,0.82
	c-0.18,0.08-0.25,0.24-0.26,0.44c-0.01,0.36,0.14,0.6,0.54,0.78c2.28,1.03,4.56,2.07,6.84,3.11c0.37,0.17,0.72,0.17,1.09,0
	c2.27-1.04,4.54-2.07,6.81-3.1c0.09-0.04,0.18-0.08,0.26-0.14c0.44-0.32,0.39-0.92-0.1-1.15c-0.43-0.2-0.88-0.39-1.3-0.61
	c-0.4-0.22-0.78-0.21-1.19-0.02c-1.59,0.73-3.2,1.44-4.79,2.17c-0.16,0.07-0.29,0.07-0.46,0c-1.64-0.75-3.28-1.48-4.92-2.22
	C2.7,11,2.54,10.97,2.41,10.93C2.27,10.96,2.17,10.96,2.08,11z M8.55,11.96c1.11-0.5,2.22-1.01,3.33-1.51
	c1.19-0.54,2.38-1.08,3.57-1.62c0.3-0.13,0.46-0.36,0.46-0.69c0.01-0.31-0.19-0.47-0.44-0.58c-0.41-0.18-0.83-0.35-1.22-0.57
	c-0.44-0.25-0.85-0.22-1.3-0.01C11.38,7.7,9.8,8.41,8.23,9.12C8.06,9.2,7.92,9.19,7.75,9.12C6.12,8.37,4.48,7.64,2.85,6.9
	C2.57,6.78,2.28,6.73,2,6.86c-0.54,0.25-1.08,0.5-1.62,0.76c-0.24,0.12-0.33,0.33-0.3,0.6c0.04,0.31,0.21,0.5,0.49,0.62
	C2.89,9.89,5.21,10.95,7.53,12c0.14,0.06,0.29,0.09,0.46,0.15C8.17,12.09,8.37,12.05,8.55,11.96z"/>
</svg>
