<?xml version="1.0" encoding="utf-8"?>
<!-- Generator: Adobe Illustrator 23.0.5, SVG Export Plug-In . SVG Version: 6.00 Build 0)  -->
<svg version="1.1" id="Layer_1" xmlns="http://www.w3.org/2000/svg" xmlns:xlink="http://www.w3.org/1999/xlink" x="0px" y="0px"
	 viewBox="0 0 14.26 23.98" style="enable-background:new 0 0 14.26 23.98;" xml:space="preserve">
<style type="text/css">
	.st0{fill:#525252;}
	.st1{fill:#525252;stroke:#525252;stroke-miterlimit:10;}
</style>
<path class="st0" d="M0,6.83c0.01-3.39,2.91-6.59,6.45-6.81c3.96-0.25,7.29,2.4,7.75,6.22c0.2,1.69-0.12,3.29-1.08,4.73
	c-1.68,2.51-3.36,5.03-5.05,7.54c-0.6,0.89-1.31,0.89-1.91-0.01c-1.67-2.49-3.32-4.98-4.99-7.47C0.38,9.85-0.02,8.54,0,6.83z
	 M10.19,7.86c0-1.69-1.39-3.07-3.06-3.07c-1.68,0-3.07,1.39-3.07,3.06c0,1.7,1.41,3.08,3.11,3.07C8.82,10.9,10.2,9.51,10.19,7.86z
	 M8.26,1.71c-0.27,0-0.54-0.02-0.58,0.3C7.64,2.32,7.89,2.39,8.13,2.41c1.23,0.12,2.21,0.69,2.94,1.67c0.15,0.2,0.33,0.38,0.58,0.19
	c0.25-0.19,0.12-0.42-0.02-0.62C10.79,2.5,9.63,1.87,8.26,1.71z M12.53,6.29c-0.04-0.41-0.07-0.78-0.2-1.13
	c-0.07-0.17-0.2-0.28-0.4-0.24c-0.18,0.04-0.27,0.17-0.25,0.34c0.04,0.46,0.1,0.92,0.17,1.38C11.87,6.8,12,6.91,12.18,6.9
	c0.18-0.01,0.28-0.13,0.32-0.29C12.52,6.5,12.52,6.37,12.53,6.29z M9.34,23.69c0.49-0.17,1.04-0.36,1.03-0.99
	c-0.01-0.6-0.53-0.8-1.01-0.96c-1.13-0.38-2.3-0.37-3.47-0.23c-0.54,0.06-1.08,0.19-1.55,0.49c-0.63,0.41-0.64,1-0.02,1.42
	c0.27,0.19,0.59,0.29,0.9,0.37c0.62,0.16,1.26,0.21,1.9,0.2C7.88,24,8.62,23.94,9.34,23.69z"/>
</svg>
