<?xml version="1.0" encoding="utf-8"?>
<!-- Generator: Adobe Illustrator 23.0.5, SVG Export Plug-In . SVG Version: 6.00 Build 0)  -->
<svg version="1.1" id="Layer_1" xmlns="http://www.w3.org/2000/svg" xmlns:xlink="http://www.w3.org/1999/xlink" x="0px" y="0px"
	 viewBox="0 0 16.04 13.49" style="enable-background:new 0 0 16.04 13.49;" xml:space="preserve">
<style type="text/css">
	.st0{fill:#525252;}
	.st1{fill:#525252;stroke:#525252;stroke-miterlimit:10;}
</style>
<path class="st0" d="M16.04,10.32c-0.64,0.31-1.31,0.5-2.01,0.61c-0.43,0.07-0.86,0.1-1.31,0.15c0-0.11,0-0.19,0-0.27
	c0.01-0.52,0-1.05-0.16-1.55c-0.37-1.13-1.12-1.9-2.23-2.32c-0.05-0.02-0.09-0.03-0.16-0.06c0.56-0.56,0.85-1.23,0.89-2.01
	c0.68,0,1.34-0.01,2,0c0.24,0,0.48,0.04,0.71,0.09c1.19,0.29,2.07,1.27,2.24,2.48c0.01,0.04,0.02,0.08,0.03,0.12
	C16.04,8.48,16.04,9.4,16.04,10.32z M12.15,10.93c0-0.48,0.01-0.97-0.12-1.44c-0.31-1.15-1.43-2.11-2.6-2.17
	C8.61,7.28,7.79,7.27,6.97,7.31C5.4,7.38,4.17,8.65,4.14,10.22c-0.02,0.75,0,1.49-0.01,2.24c0,0.32,0,0.32,0.31,0.41
	c1.86,0.56,3.74,0.79,5.67,0.48c0.65-0.1,1.28-0.27,1.89-0.54c0.11-0.05,0.16-0.11,0.16-0.24c-0.01-0.42,0-0.83,0-1.25
	C12.15,11.19,12.15,11.06,12.15,10.93z M6.11,6.87c-0.55-0.55-0.84-1.22-0.88-2c-0.08,0-0.15,0-0.21,0c-0.67,0-1.34-0.01-2,0
	C1.33,4.89,0.02,6.19,0,7.87C0,8.65,0,9.44,0,10.22c0,0.1,0.03,0.15,0.13,0.17c0.5,0.13,0.99,0.28,1.5,0.38
	c0.63,0.12,1.27,0.2,1.96,0.31C3.43,9.04,4.19,7.6,6.11,6.87z M8.13,7.12c1.3,0.01,2.36-1.05,2.36-2.35c0-1.29-1.06-2.35-2.35-2.35
	c-1.3,0-2.35,1.05-2.35,2.35C5.79,6.07,6.83,7.12,8.13,7.12z M5.13,4.41C5.22,4.36,5.27,4.3,5.29,4.2c0.12-0.61,0.4-1.13,0.87-1.54
	C6.35,2.5,6.38,2.33,6.35,2.12C6.34,2.05,6.34,1.98,6.32,1.9C6.1,0.71,5-0.1,3.76,0.01c-1.17,0.11-2.1,1.14-2.09,2.34
	C1.66,4.13,3.57,5.26,5.13,4.41z M9.69,2.16C9.68,2.24,9.67,2.31,9.76,2.37c0.7,0.48,1.12,1.15,1.25,1.99
	c0.01,0.09,0.05,0.13,0.14,0.16c0.36,0.14,0.72,0.2,1.1,0.16c1.26-0.12,2.18-1.19,2.12-2.48C14.32,0.99,13.27,0,12.03,0
	C10.81,0,9.78,0.94,9.69,2.16z"/>
</svg>
