<?xml version="1.0" encoding="utf-8"?>
<!-- Generator: Adobe Illustrator 23.0.5, SVG Export Plug-In . SVG Version: 6.00 Build 0)  -->
<svg version="1.1" id="Layer_1" xmlns="http://www.w3.org/2000/svg" xmlns:xlink="http://www.w3.org/1999/xlink" x="0px" y="0px"
	 viewBox="0 0 16.02 15" style="enable-background:new 0 0 16.02 15;" xml:space="preserve">
<style type="text/css">
	.st0{fill:#525252;}
	.st1{fill:#525252;stroke:#525252;stroke-miterlimit:10;}
</style>
<path class="st0" d="M8.08,8.87c0-0.33,0-0.62,0-0.91c0.01-0.74-0.62-1.19-1.24-0.89C6.5,7.23,6.31,7.75,6.41,8.21
	c0.27,1.19,0.53,2.37,0.8,3.56c0.15,0.66,0.28,1.31,0.43,1.97c0.16,0.7,0.89,0.96,1.43,0.49c0.2-0.17,0.34-0.43,0.46-0.68
	c0.21-0.43,0.38-0.88,0.58-1.34c0.4,0.51,0.7,0.5,1.11-0.01c0.26,0.56,0.51,1.11,0.78,1.7c-0.17,0.16-0.45,0.17-0.72,0.18
	c-0.27,0.02-0.54,0.01-0.81,0.01c-0.17,0-0.29,0.06-0.32,0.25c-0.03,0.14-0.08,0.27-0.13,0.41c-0.09,0.26-0.3,0.31-0.52,0.15
	c-0.1-0.07-0.2-0.15-0.3-0.23c-0.22-0.15-0.45-0.17-0.72-0.13c-0.18,0.03-0.4,0-0.56-0.08c-0.61-0.31-1.19-0.65-1.79-0.98
	c-0.07-0.04-0.16-0.1-0.22-0.08c-0.35,0.14-0.52-0.15-0.75-0.3c-0.03-0.02-0.08-0.08-0.07-0.1c0.1-0.28-0.14-0.32-0.29-0.42
	c-0.05-0.04-0.11-0.06-0.16-0.1c-0.36-0.28-0.74-0.36-1.2-0.26c-0.64,0.14-0.99-0.17-0.98-0.82c0-0.22-0.1-0.32-0.26-0.38
	c-0.25-0.1-0.33-0.28-0.33-0.54c0-0.37-0.02-0.73-0.06-1.1C1.76,8.92,1.52,8.57,1.09,8.35c-0.08-0.04-0.16-0.14-0.2-0.23
	C0.81,7.91,0.74,7.68,0.7,7.45C0.67,7.24,0.67,7.01,0.66,6.78C0.65,6.77,0.64,6.76,0.62,6.75C0.04,6.67-0.15,6.34,0.11,5.81
	c0.1-0.2,0.28-0.37,0.41-0.56C0.57,5.2,0.61,5.08,0.58,5.04C0.2,4.49,0.23,3.9,0.35,3.29C0.37,3.2,0.37,3.11,0.38,3.01
	c0.54-0.04,0.77-0.35,0.79-0.87c0-0.06,0.09-0.15,0.15-0.18C1.96,1.64,2.6,1.34,3.24,1.04C3.31,1.01,3.42,1,3.49,1.03
	c2.19,0.88,4.38,1.76,6.57,2.65c0.01,0.01,0.02,0.03,0.04,0.07C9.43,3.79,8.79,4,8.12,3.72C7.76,3.57,7.37,3.5,6.99,3.38
	C6.75,3.3,6.53,3.31,6.38,3.54C6.22,3.78,6.04,3.78,5.79,3.67C5.12,3.4,4.45,3.17,3.76,2.92C3.72,3.02,3.69,3.1,3.65,3.2
	c0.08,0.04,0.15,0.07,0.22,0.1c0.7,0.26,1.39,0.51,2.09,0.78C6.12,4.14,6.25,4.15,6.36,4c0.23-0.29,0.5-0.29,0.81-0.13
	c0.29,0.15,0.6,0.24,0.88,0.39C8.57,4.55,9.1,4.65,9.68,4.51c0.63-0.15,1.24-0.05,1.83,0.22c0.2,0.1,0.39,0.08,0.59,0.02
	c0.45-0.14,0.91-0.26,1.37-0.4c0.01-0.19-0.04-0.25-0.23-0.19c-0.35,0.11-0.71,0.18-1.06,0.31c-0.27,0.09-0.52,0.09-0.77-0.03
	c-0.11-0.05-0.23-0.1-0.35-0.13c-0.24-0.04-0.34-0.18-0.3-0.41c0.03-0.19-0.08-0.26-0.24-0.32C8.48,2.78,6.46,1.96,4.44,1.14
	C4.36,1.11,4.29,1.08,4.14,1.02c0.54-0.1,1.01-0.19,1.48-0.27C6.08,0.67,6.55,0.61,7,0.51c0.28-0.06,0.54-0.03,0.81,0.06
	C9.84,1.29,11.86,2,13.9,2.69c0.28,0.1,0.44,0.23,0.48,0.52c0.01,0.07,0.04,0.14,0.07,0.24c0.09-0.03,0.18-0.05,0.29-0.08
	c-0.07-0.24-0.11-0.46-0.2-0.66c-0.04-0.09-0.17-0.17-0.28-0.21C12.18,1.77,10.09,1.05,8,0.32C7.9,0.28,7.81,0.24,7.64,0.18
	C8.22,0.11,8.72,0.05,9.22,0C9.31-0.01,9.4,0.03,9.48,0.06c1.67,0.53,3.34,1.07,5.01,1.6c0.2,0.06,0.33,0.16,0.45,0.34
	c0.12,0.17,0.24,0.31,0.26,0.53c0.01,0.1,0.21,0.18,0.32,0.26c0.1,0.07,0.21,0.13,0.37,0.23c-0.21,0.11-0.33,0.18-0.45,0.24
	c0.01,0.02,0.02,0.05,0.03,0.07c0.11-0.04,0.22-0.09,0.34-0.12c0.06-0.02,0.13-0.01,0.19-0.01c0,0.06,0.02,0.12,0,0.17
	c-0.11,0.35-0.23,0.7-0.36,1.04c-0.03,0.08-0.11,0.16-0.19,0.19C15.25,4.72,15.02,4.8,14.8,4.9c-0.05,0.02-0.07,0.08-0.11,0.13
	c0.06,0.01,0.13,0.04,0.17,0.03c0.23-0.09,0.46-0.19,0.76-0.31c0.01,0.14,0.02,0.25,0.03,0.36c0.01,0.08,0.01,0.17,0.04,0.25
	c0.13,0.38,0.13,0.71-0.14,1.06c-0.15,0.19-0.29,0.3-0.5,0.39c-0.09,0.04-0.16,0.14-0.21,0.22c-0.08,0.15-0.14,0.31-0.2,0.45
	c-0.29-0.25-0.57-0.48-0.9-0.75c0.03-0.18,0.02-0.46-0.27-0.57c-0.11-0.04-0.32,0.04-0.42,0.13C12.88,6.45,12.91,6.67,13.12,7
	c-0.32,0.2-0.63,0.39-0.95,0.6c-0.05,0.04-0.08,0.11-0.13,0.17c0.07,0,0.13,0.02,0.2,0.01c0.31-0.04,0.57-0.31,0.92-0.16
	c0.03,0.01,0.09-0.05,0.13-0.08c0.1-0.07,0.22-0.2,0.3-0.19c0.22,0.04,0.44,0.14,0.65,0.24c0.09,0.04,0.15,0.13,0.22,0.19
	c0.34,0.3,0.36,0.71-0.02,0.97c-0.46,0.3-0.75,0.64-0.57,1.22c0.01,0.05,0,0.1,0,0.17c-0.51-0.11-0.97,0.05-1.43,0.16
	c-0.87,0.19-1.75,0.38-2.62,0.58c-0.02,0.01-0.05,0-0.12,0c0.09-0.07,0.15-0.11,0.21-0.16c0.55-0.41,0.83-1.16,0.65-1.79
	c-0.13-0.43-0.4-0.76-0.85-0.85C9.17,7.97,8.69,8.15,8.31,8.57C8.24,8.66,8.17,8.75,8.08,8.87z M2.87,9.22
	c0.04,0.02,0.07,0.03,0.11,0.05C2.9,9.41,2.77,9.54,2.76,9.69C2.73,10,2.77,10.31,2.79,10.62c0,0.06,0.05,0.15,0.1,0.18
	c0.25,0.14,0.5,0.27,0.78,0.42c-0.02-0.14-0.04-0.25-0.04-0.35c0-0.26-0.01-0.52,0.03-0.77C3.7,9.8,3.87,9.68,4.14,9.69
	C4.11,9.74,4.1,9.81,4.07,9.83c-0.25,0.1-0.28,0.32-0.29,0.53C3.77,10.57,3.79,10.79,3.82,11c0.08,0.49,0.41,0.66,0.86,0.47
	c0.19-0.08,0.4-0.23,0.57-0.19c0.25,0.06,0.41-0.03,0.59-0.13c0.46-0.26,0.48-0.26,0.32-0.76c-0.13-0.4-0.09-0.89-0.55-1.14
	C5.57,9.22,5.57,9.1,5.53,9.03c-0.1-0.16-0.19-0.33-0.31-0.46C5.17,8.52,5.03,8.5,4.95,8.52C4.9,8.54,4.87,8.66,4.84,8.74
	c-0.03,0.1-0.01,0.22-0.05,0.32C4.75,9.17,4.66,9.37,4.6,9.37c-0.13,0-0.28-0.1-0.39-0.19C4.14,9.13,4.1,9.03,4.09,8.94
	C4.02,8.32,3.96,7.7,4.21,7.09c0.3-0.73,0.86-1.16,1.53-1.5c0.6-0.3,1.17-0.32,1.75,0.02c0.02,0.01,0.05,0.02,0.07,0.03
	c0.31,0.09,0.57,0.25,0.74,0.53c0.31,0.5,0.72,0.8,1.34,0.63c0.01,0,0.02,0,0.03,0c0.07-0.03,0.16-0.04,0.2-0.09
	c0.13-0.13,0.24-0.27,0.35-0.41c0.36-0.46,0.85-0.55,1.39-0.5c0.09,0.01,0.25-0.06,0.28-0.13c0.03-0.09,0-0.25-0.06-0.33
	c-0.04-0.05-0.2-0.05-0.28-0.02c-0.19,0.07-0.37,0.23-0.56,0.25C10.5,5.64,10.16,5.9,9.9,6.3C9.88,6.33,9.86,6.36,9.83,6.38
	c-0.1,0.06-0.2,0.13-0.32,0.16c-0.33,0.08-0.6,0.02-0.8-0.3C8.6,6.05,8.43,5.89,8.28,5.73C8.2,5.65,8.1,5.57,8,5.53
	C7.62,5.37,7.24,5.22,6.85,5.07C6.78,5.05,6.69,5.01,6.62,5.03c-1.07,0.28-2.06,0.7-2.57,1.79C4.03,6.87,4,6.92,3.96,6.95
	C3.62,7.2,3.56,7.57,3.51,7.95C3.49,8.09,3.48,8.23,3.45,8.37C3.42,8.58,3.31,8.59,3.15,8.5c-0.3-0.17-0.5-0.54-0.39-0.89
	c0.11-0.35,0.32-0.67,0.48-1c0.05-0.1,0.1-0.25,0.06-0.33c-0.14-0.3-0.58-0.33-0.76-0.06C2.41,6.4,2.29,6.6,2.23,6.81
	C2.11,7.22,2.02,7.65,1.92,8.08C1.56,8.03,1.31,7.74,1.4,7.31c0.08-0.4,0.23-0.79,0.38-1.17c0.07-0.18,0.12-0.31-0.07-0.43
	C1.52,5.59,1.33,5.57,1.2,5.78c-0.11,0.19-0.27,0.39-0.28,0.6C0.9,6.81,0.95,7.25,0.98,7.68C0.99,7.89,1.11,8.03,1.3,8.14
	c0.53,0.29,0.8,0.75,0.84,1.35c0.02,0.23,0.06,0.47,0.05,0.7c-0.01,0.28,0.14,0.37,0.37,0.42C2.58,10.1,2.35,9.56,2.87,9.22z
	 M0.67,5.31C0.51,5.56,0.33,5.77,0.23,6.02C0.09,6.39,0.28,6.59,0.71,6.53C0.71,6.15,1.12,5.78,0.67,5.31z M3.73,11.94
	c-0.34-0.2-0.63-0.38-0.93-0.56c-0.03-0.02-0.06-0.03-0.1-0.04C2.63,11.96,2.98,12.17,3.73,11.94z M5.14,6.96c0-0.04,0-0.08,0-0.12
	c-0.1-0.07-0.21-0.21-0.3-0.2C4.74,6.66,4.66,6.81,4.58,6.9c0.1,0.09,0.18,0.22,0.29,0.24C4.94,7.16,5.05,7.02,5.14,6.96z
	 M14.11,7.83c-0.18-0.12-0.3-0.25-0.37-0.23c-0.1,0.03-0.23,0.16-0.24,0.27c-0.01,0.07,0.15,0.24,0.24,0.24
	C13.84,8.1,13.93,7.96,14.11,7.83z M15.58,6.21c0-0.3,0-0.53,0-0.76C15.27,5.93,15.27,5.93,15.58,6.21z M4.77,8.95
	c-0.13-0.1-0.22-0.22-0.28-0.2C4.41,8.77,4.3,8.88,4.29,8.96c-0.01,0.06,0.12,0.2,0.18,0.2C4.56,9.16,4.64,9.05,4.77,8.95z
	 M7.72,12.89c0.24-0.41,0.51-0.69,0.94-0.73c0.46-0.04,0.71,0.25,0.91,0.66c0.07-0.15,0.12-0.27,0.18-0.37
	c0.18-0.33,0.34-0.67,0.57-0.97c0.3-0.39,0.73-0.31,0.93,0.13c0.08,0.18,0.17,0.37,0.23,0.5c0.24-0.49,0.48-0.98,0.72-1.47
	c-0.23,0.06-0.51,0.12-0.78,0.19c-0.78,0.19-1.57,0.38-2.38,0.35c-0.73-0.03-1.07-0.31-1.19-1.03C7.79,9.81,7.8,9.47,7.79,9.13
	c0-0.14,0-0.27,0-0.34C7.47,8.83,7.18,8.87,6.87,8.91C7.14,10.17,7.42,11.49,7.72,12.89z M12.04,12.37
	c0.03-0.64,0.24-1.19,0.78-1.57c0.53-0.37,1.15-0.2,1.44,0.38c0.35,0.72,0.06,1.83-0.61,2.28c-0.73,0.49-1.52,0.06-1.61-0.88
	C12.03,12.51,12.04,12.44,12.04,12.37z M13.37,10.84c0.89,0.9,0.35,2.2-0.77,2.47c0.21,0.22,0.44,0.19,0.66,0.07
	c0.61-0.33,0.93-0.85,0.94-1.55c0.01-0.36-0.11-0.67-0.38-0.91C13.7,10.8,13.55,10.72,13.37,10.84z M8.27,9.58
	C8.29,9.25,8.43,8.9,8.74,8.64c0.5-0.42,1.17-0.24,1.39,0.37c0.19,0.53-0.02,1.19-0.49,1.49c-0.28,0.18-0.58,0.22-0.89,0.05
	C8.45,10.39,8.27,10.05,8.27,9.58z M9.39,8.65c0.32,0.3,0.41,0.64,0.29,1.04c-0.12,0.39-0.43,0.59-0.82,0.73
	c0.27,0.12,0.34,0.12,0.55,0c0.53-0.3,0.77-1.05,0.49-1.53C9.79,8.73,9.68,8.56,9.39,8.65z M8.35,13.92
	c0.57-0.31,0.68-0.71,0.32-1.24c0.2-0.04,0.35,0.09,0.4,0.34c0.09,0.43-0.23,1.07-0.81,1.01c0.13,0.01,0.28,0.07,0.4,0.03
	c0.48-0.15,0.73-0.9,0.46-1.33c-0.14-0.23-0.4-0.29-0.66-0.17c-0.37,0.19-0.6,0.7-0.46,1.13c0.04,0.13,0.17,0.23,0.26,0.34
	C8.3,14,8.32,13.94,8.35,13.92z M7.19,8.64C7.09,8.57,6.96,8.51,6.88,8.4c-0.2-0.25-0.19-0.72,0-0.98C7.04,7.2,7.32,7.18,7.53,7.37
	c0.3,0.27,0.25,0.94-0.08,1.17C7.39,8.58,7.31,8.6,7.19,8.64z M7.35,7.49C7.4,7.67,7.49,7.85,7.46,8.01
	c-0.03,0.16-0.19,0.3-0.28,0.43C7.41,8.44,7.58,8.28,7.61,8C7.63,7.77,7.62,7.55,7.35,7.49z M10.56,11.6
	c-0.22,0.2-0.22,0.51-0.02,0.7c0.25-0.18,0.45-0.38,0.21-0.76c0.11,0.06,0.16,0.09,0.2,0.12C10.84,11.45,10.7,11.46,10.56,11.6z
	 M13.36,6.31c-0.08,0-0.22,0.16-0.24,0.27c-0.04,0.16,0.06,0.32,0.25,0.29c0.11-0.01,0.2-0.14,0.38-0.27
	C13.57,6.46,13.47,6.31,13.36,6.31z"/>
</svg>
