<?xml version="1.0" encoding="utf-8"?>
<!-- Generator: Adobe Illustrator 23.0.5, SVG Export Plug-In . SVG Version: 6.00 Build 0)  -->
<svg version="1.1" id="Layer_1" xmlns="http://www.w3.org/2000/svg" xmlns:xlink="http://www.w3.org/1999/xlink" x="0px" y="0px"
	 viewBox="0 0 16.01 26.38" style="enable-background:new 0 0 16.01 26.38;" xml:space="preserve">
<style type="text/css">
	.st0{fill:#525252;}
	.st1{fill:#525252;stroke:#525252;stroke-miterlimit:10;}
</style>
<path class="st0" d="M6.29,0.01c-0.07,0-0.14,0.01-0.21,0.02c-0.4,0.1-0.79,0.2-1.19,0.31C4.07,0.57,3.33,0.97,2.7,1.56
	C2.52,1.74,2.4,1.94,2.37,2.2C2.35,2.38,2.31,2.56,2.31,2.74c-0.05,1.07-0.1,2.14-0.12,3.2C2.16,6.92,2.17,7.9,2.17,8.89
	c0,0.06-0.01,0.12-0.02,0.19C2.11,9.06,2.09,9.07,2.08,9.06C1.56,8.67,1,8.64,0.4,8.84c-0.36,0.12-0.51,0.5-0.32,0.81
	c0.25,0.39,0.49,0.47,0.92,0.3c0.02-0.01,0.04-0.01,0.06-0.02c0.36-0.18,0.72-0.17,1.1-0.05c0,0.04,0,0.09-0.01,0.13
	c-0.04,0.37-0.09,0.75-0.11,1.12c-0.07,1.15-0.15,2.31-0.18,3.46c-0.06,1.97-0.01,3.94,0.17,5.9c0.13,1.4,0.32,2.79,0.5,4.19
	c0.09,0.68,0.47,1.14,1.14,1.36c0.79,0.26,1.6,0.33,2.42,0.34c0.62,0.01,1.24-0.02,1.87-0.03c0.89-0.01,1.78,0.02,2.67-0.01
	c0.62-0.02,1.23-0.12,1.81-0.34c0.56-0.2,0.91-0.6,1.01-1.18c0.13-0.7,0.22-1.4,0.31-2.1c0.21-1.61,0.34-3.22,0.37-4.84
	c0.03-1.42,0.03-2.85-0.02-4.27c-0.04-1.19-0.17-2.38-0.25-3.57c-0.02-0.34,0-0.68,0-1.04c0.14,0.06,0.29,0.04,0.33,0.23
	c0.11,0.62,0.5,1.02,1.06,1.28c0.33,0.15,0.74-0.05,0.76-0.4c0.03-0.58,0.03-0.65-0.49-0.85c-0.01,0-0.02-0.01-0.03-0.01
	c-0.26-0.1-0.49-0.25-0.64-0.49c-0.11-0.18-0.27-0.27-0.47-0.32C14.25,8.41,14.13,8.35,14,8.33c-0.12-0.03-0.16-0.09-0.16-0.22
	c0-0.74,0.01-1.48-0.01-2.23c-0.03-1.12-0.09-2.25-0.15-3.37c-0.02-0.3-0.03-0.62-0.27-0.84c-0.28-0.26-0.57-0.5-0.89-0.72
	c-0.56-0.39-1.21-0.58-1.85-0.75c-0.31-0.08-0.64-0.19-0.96-0.2C8.57-0.01,7.43,0,6.29,0.01z M3.15,21.46
	c-0.09-0.62-0.2-1.25-0.27-1.88c-0.09-0.78-0.17-1.56-0.2-2.35c-0.03-0.77-0.01-1.55,0.05-2.32c0.07-0.87,0.18-1.74,0.31-2.6
	c0.15-1,0.35-2,0.53-3c0.02-0.1,0.05-0.21,0.19-0.2c0.14,0.01,0.15,0.12,0.15,0.23c0.03,2.07,0.06,4.15,0.08,5.44
	c-0.07,2.73-0.13,4.68-0.18,6.64c-0.01,0.2-0.12,0.33-0.3,0.35C3.33,21.8,3.18,21.68,3.15,21.46z M8,16.29c-0.8,0-1.6,0.01-2.41,0
	c-0.5,0-0.86-0.37-0.84-0.87c0.02-0.62,0.07-1.24,0.13-1.86c0.04-0.42,0.43-0.75,0.86-0.76c1.5-0.01,3-0.01,4.5,0
	c0.5,0,0.87,0.38,0.9,0.88c0.04,0.55,0.08,1.11,0.12,1.66c0.04,0.5-0.29,0.92-0.79,0.93C9.65,16.3,8.83,16.29,8,16.29L8,16.29z
	 M11.72,23.77c0.02,0.16,0,0.25-0.17,0.32c-0.67,0.27-1.36,0.44-2.07,0.5c-0.98,0.09-1.97,0.09-2.96,0
	c-0.74-0.07-1.45-0.24-2.13-0.53c-0.1-0.04-0.12-0.09-0.11-0.2c0.09-0.63,0.17-1.25,0.25-1.88c0.06-0.47,0.13-0.94,0.19-1.42
	c2.19,1.14,4.37,1.15,6.57-0.01c0.06,0.47,0.12,0.9,0.18,1.34C11.55,22.52,11.63,23.15,11.72,23.77z M13.28,9.31
	c0.03,0.72,0.07,1.45,0.07,2.17c-0.01,2.25-0.04,4.49-0.07,6.74c-0.02,1.06-0.05,2.13-0.08,3.19c0,0.16-0.06,0.29-0.22,0.35
	c-0.14,0.05-0.26,0.02-0.35-0.09c-0.04-0.05-0.07-0.12-0.08-0.19c-0.1-0.66-0.21-1.32-0.28-1.99c-0.09-0.87-0.18-1.75-0.2-2.62
	c-0.02-0.75,0.05-1.5,0.08-2.25c0.02-0.32,0.06-0.64,0.09-0.96v0l0.08-0.63v0c0.04-0.28,0.08-0.58,0.13-0.88
	c0.17-0.95,0.34-1.9,0.51-2.85c0.02-0.1,0.07-0.17,0.18-0.17C13.25,9.13,13.28,9.21,13.28,9.31z M8.98,4.85
	c1.26,0.05,2.47,0.31,3.57,0.98c0.12,0.07,0.14,0.14,0.1,0.27c-0.43,1.31-0.86,2.63-1.28,3.95c-0.02,0.08-0.05,0.15-0.08,0.23
	c-0.29-0.15-0.56-0.32-0.85-0.44c-0.36-0.14-0.73-0.26-1.09-0.37c0,0,0,0,0,0c-0.46-0.17-1.1-0.16-1.1-0.16
	c-0.6-0.03-1.18,0.04-1.75,0.2C5.87,9.68,5.29,9.94,4.72,10.3C4.64,10.05,4.57,9.83,4.5,9.61C4.12,8.45,3.75,7.29,3.36,6.13
	C3.3,5.96,3.35,5.88,3.49,5.8c0.72-0.42,1.5-0.69,2.33-0.83c0.71-0.12,1.43-0.16,2.15-0.11C8.31,4.88,8.65,4.83,8.98,4.85z"/>
</svg>
