<?xml version="1.0" encoding="utf-8"?>
<!-- Generator: Adobe Illustrator 23.0.5, SVG Export Plug-In . SVG Version: 6.00 Build 0)  -->
<svg version="1.1" id="Layer_1" xmlns="http://www.w3.org/2000/svg" xmlns:xlink="http://www.w3.org/1999/xlink" x="0px" y="0px"
	 viewBox="0 0 16.1 12.03" style="enable-background:new 0 0 16.1 12.03;" xml:space="preserve">
<style type="text/css">
	.st0{fill:#525252;}
	.st1{fill:#525252;stroke:#525252;stroke-miterlimit:10;}
</style>
<path class="st0" d="M0.01,2.69c4.47,0,8.88,0,13.32,0c0,1.08,0,2.14,0,3.19c-0.04,0.03-0.07,0.07-0.1,0.07
	C11.68,6,11.68,6,11.61,4.44c-0.03-0.6-0.29-0.94-0.7-0.93c-0.43,0.02-0.64,0.33-0.64,0.97c0,0.47,0,0.94,0,1.41
	c-0.09,0.04-0.14,0.07-0.2,0.07C8.8,6.03,8.78,6.01,8.78,4.76c0-0.17,0-0.34,0-0.51c0-0.44-0.24-0.7-0.65-0.71
	C7.7,3.52,7.47,3.8,7.43,4.22C7.41,4.5,7.43,4.79,7.43,5.07c0,0.28,0,0.56,0,0.89c-0.34,0-0.62,0-0.9,0
	C6.15,5.97,5.95,5.79,5.95,5.42c0-0.34,0.01-0.69,0-1.03C5.94,3.83,5.68,3.48,5.27,3.52C4.77,3.57,4.61,3.91,4.61,4.37
	c0.01,0.51,0,1.02,0,1.49C4.53,5.91,4.5,5.95,4.46,5.95C3.14,6.04,3.14,6.04,3.14,4.7c0-0.81-0.21-1.18-0.67-1.18
	C2,3.51,1.79,3.86,1.79,4.68c0,0.32,0,0.65,0,0.97c0.01,1.07,0.61,1.66,1.67,1.66c3.12,0,6.24,0,9.36,0c0.15,0,0.3,0,0.49,0
	c0,1.24,0.06,2.45-0.02,3.65c-0.04,0.61-0.71,1.05-1.39,1.06c-1.33,0.02-2.66,0.02-4,0c-0.67-0.01-1.08-0.43-1.18-1.1
	C6.59,10,6.21,9.65,5.3,9.64C4.06,9.64,2.83,9.65,1.59,9.64c-0.91-0.01-1.54-0.53-1.56-1.4C-0.02,6.41,0.01,4.59,0.01,2.69z
	 M12.27,1.03c-3.75,0-7.5,0-11.24,0c-1.05,0-1.05-0.01-1.01,1.03c0,0.09,0.04,0.18,0.06,0.28c4.42,0,8.81,0,13.24,0
	C13.49,1.04,13.48,1.03,12.27,1.03z M13.63,7c0.61,0,1.22,0.03,1.82-0.02c0.21-0.02,0.55-0.2,0.57-0.34
	c0.06-0.41-0.31-0.38-0.59-0.38c-1.02,0-2.05,0-3.07,0c-0.85,0-1.06-0.22-1.07-1.09c0-0.3,0.03-0.61-0.03-0.91
	c-0.03-0.16-0.22-0.28-0.34-0.42c-0.12,0.14-0.33,0.27-0.34,0.42c-0.04,0.49-0.03,0.99-0.02,1.48c0.02,0.81,0.47,1.24,1.3,1.26
	C12.45,7.02,13.04,7.01,13.63,7C13.63,7.01,13.63,7.01,13.63,7z M14.9,10.53c1.22,0,1.29-0.08,1.14-1.29
	c-0.01-0.06,0.01-0.13-0.03-0.17c-0.11-0.11-0.23-0.29-0.35-0.3c-0.64-0.03-1.28-0.01-1.95-0.01c0,0.6,0,1.15,0,1.77
	C14.15,10.53,14.53,10.53,14.9,10.53z M3.93,6.25c-0.9,0.05-1.1-0.18-1.1-1.1c0-0.3,0.04-0.62-0.02-0.91
	C2.78,4.09,2.58,3.96,2.45,3.83C2.33,3.97,2.12,4.1,2.11,4.25c-0.04,0.55-0.04,1.1,0,1.65C2.16,6.57,2.61,6.97,3.28,7
	c0.57,0.02,1.14,0,1.75,0C4.87,6.37,4.51,6.22,3.93,6.25z M6.63,6.27c-0.7,0.01-0.96-0.24-0.97-0.95c0-0.36,0.03-0.73-0.02-1.08
	C5.62,4.09,5.4,3.97,5.28,3.83C5.16,3.97,4.95,4.1,4.93,4.25C4.89,4.76,4.9,5.28,4.92,5.79C4.94,6.5,5.38,6.96,6.09,7
	c0.58,0.03,1.17,0.01,1.83,0.01C7.45,6.26,7.45,6.26,6.63,6.27z M9.47,6.26c-0.75,0.02-0.99-0.24-1-0.98
	C8.46,4.93,8.49,4.58,8.43,4.25C8.41,4.1,8.21,3.97,8.1,3.83C7.98,3.97,7.77,4.11,7.76,4.26c-0.04,0.55-0.03,1.1-0.01,1.65
	c0.03,0.57,0.42,1.02,1,1.07c0.63,0.05,1.27,0.01,1.92,0.01C10.53,6.25,10.03,6.24,9.47,6.26z M8.9,0.7C8.79,0.23,8.53,0,8.11,0
	c-0.42,0-0.68,0.24-0.79,0.7C7.86,0.7,8.35,0.7,8.9,0.7z M10.84,0.01c-0.38,0.03-0.65,0.25-0.67,0.7c0.51,0,1,0,1.55,0
	C11.59,0.18,11.28-0.03,10.84,0.01z M5.26,0.01c-0.4,0.02-0.71,0.21-0.73,0.71c0.51,0,0.99,0,1.53,0C5.97,0.19,5.67-0.01,5.26,0.01z
	 M2.44,0C2.05,0.01,1.74,0.22,1.7,0.71c0.51,0,0.99,0,1.55,0C3.15,0.2,2.84-0.01,2.44,0z"/>
</svg>
