<?xml version="1.0" encoding="utf-8"?>
<!-- Generator: Adobe Illustrator 23.0.5, SVG Export Plug-In . SVG Version: 6.00 Build 0)  -->
<svg version="1.1" id="Layer_1" xmlns="http://www.w3.org/2000/svg" xmlns:xlink="http://www.w3.org/1999/xlink" x="0px" y="0px"
	 viewBox="0 0 14.12 23.15" style="enable-background:new 0 0 14.12 23.15;" xml:space="preserve">
<style type="text/css">
	.st0{fill:#525252;}
	.st1{fill:#525252;stroke:#525252;stroke-miterlimit:10;}
</style>
<path class="st0" d="M2.83,3.3C3.72,2.42,4.6,1.53,5.49,0.64c0.34-0.34,0.75-0.55,1.22-0.62c0.74-0.1,1.4,0.09,1.94,0.63
	c1.8,1.79,3.59,3.58,5.38,5.38c0.06,0.06,0.09,0.16,0.09,0.24c0.01,1.29,0,2.59,0,3.88c0,1.61,0,3.21,0,4.82c0,1.61,0,3.21,0,4.82
	c0,0.46,0.01,0.93-0.02,1.39c-0.04,0.57-0.3,1.06-0.74,1.43c-0.5,0.43-1.11,0.55-1.75,0.53c-0.46-0.01-0.93,0-1.39,0
	c-1.66,0-3.33,0-4.99,0c-0.5,0-0.99-0.02-1.49-0.03c-0.53,0-1.07,0.03-1.6,0.01c-1.23-0.06-2.1-0.96-2.12-2.2
	C-0.01,19.94,0,18.96,0,17.98c0-1.77,0-3.54,0-5.32c0-2.11,0-4.22,0-6.32c0-0.15,0.05-0.26,0.16-0.37C1.05,5.08,1.94,4.19,2.83,3.3
	C2.83,3.3,2.83,3.3,2.83,3.3z M10.46,11.51c-0.02-0.11-0.05-0.22-0.07-0.34c-0.01-0.07-0.01-0.13-0.02-0.2
	c-0.11-0.94-0.53-1.68-1.39-2.13C8.69,8.69,8.36,8.61,8.04,8.49c0.01-0.06,0.04-0.15,0.04-0.23c-0.01-0.3-0.03-0.61-0.04-0.91
	C8.04,7.24,8,7.2,7.88,7.2c-0.25,0.01-0.5,0.01-0.75,0C6.98,7.19,6.95,7.24,6.96,7.38c0.01,0.38,0.01,0.77,0.01,1.15
	C6.9,8.54,6.84,8.55,6.79,8.56c-0.54,0.09-1.03,0.3-1.45,0.66c-0.63,0.54-0.89,1.23-0.86,2.05c0.03,0.66,0.25,1.24,0.73,1.71
	c0.5,0.48,1.17,0.7,1.77,1.01c0.33,0.18,0.7,0.3,1.01,0.5c0.64,0.42,0.69,1.39,0.1,1.82c-0.38,0.27-0.82,0.24-1.25,0.14
	c-0.15-0.04-0.3-0.12-0.41-0.22C6.09,15.96,6.01,15.57,6,15.16c0-0.1,0-0.18-0.14-0.18c-0.53,0.01-1.05,0-1.58,0
	c-0.11,0-0.15,0.03-0.15,0.15c0,1.24,0.56,2.25,1.78,2.69c0.28,0.1,0.58,0.16,0.9,0.24c0,0.34,0,0.69-0.02,1.05
	c0,0.13,0.02,0.19,0.17,0.18c0.21-0.01,0.43-0.01,0.64,0c0.15,0.01,0.21-0.04,0.2-0.2C7.79,18.75,7.8,18.4,7.8,18.05
	c0.14-0.03,0.27-0.05,0.4-0.07c1.27-0.26,2.02-1.04,2.12-2.26c0.07-0.84-0.15-1.6-0.82-2.15c-0.32-0.26-0.7-0.46-1.07-0.66
	c-0.43-0.23-0.9-0.42-1.33-0.65c-0.58-0.31-0.82-0.81-0.73-1.43c0.06-0.43,0.3-0.71,0.71-0.81c0.46-0.11,0.9,0.04,1.14,0.37
	c0.21,0.29,0.28,0.62,0.3,0.97c0.01,0.12,0.04,0.16,0.16,0.16c0.2-0.01,0.4,0,0.6,0C9.69,11.51,10.08,11.51,10.46,11.51z M7.86,4.56
	c0.44-0.39,0.5-1.13,0.01-1.6C7.4,2.51,6.75,2.48,6.25,2.97c-0.48,0.48-0.42,1.18,0.01,1.6C6.73,5.02,7.42,5.02,7.86,4.56z"/>
</svg>
