<?xml version="1.0" encoding="utf-8"?>
<!-- Generator: Adobe Illustrator 23.0.5, SVG Export Plug-In . SVG Version: 6.00 Build 0)  -->
<svg version="1.1" id="Layer_1" xmlns="http://www.w3.org/2000/svg" xmlns:xlink="http://www.w3.org/1999/xlink" x="0px" y="0px"
	 viewBox="0 0 16.07 10.91" style="enable-background:new 0 0 16.07 10.91;" xml:space="preserve">
<style type="text/css">
	.st0{fill:#525252;}
	.st1{fill:#525252;stroke:#525252;stroke-miterlimit:10;}
</style>
<path class="st0" d="M12.28,6.25c-0.05-0.3-0.1-0.57-0.14-0.84C12.06,4.7,12.09,3.99,12.3,3.3c0.03-0.11,0.08-0.17,0.2-0.21
	c0.33-0.1,0.52-0.42,0.49-0.78C12.96,2,12.7,1.72,12.38,1.67c-0.35-0.06-0.68,0.12-0.81,0.44c-0.13,0.31-0.04,0.68,0.24,0.87
	c0.12,0.08,0.12,0.14,0.08,0.26c-0.27,0.88-0.24,1.77-0.08,2.66c0.03,0.18,0.06,0.37,0.12,0.54c0.05,0.14,0,0.19-0.12,0.25
	c-0.73,0.36-1.46,0.73-2.2,1.09C7.6,8.8,5.57,9.81,3.55,10.82c-0.32,0.16-0.45,0.12-0.6-0.2C1.99,8.7,1.03,6.78,0.07,4.85
	c-0.14-0.28-0.09-0.43,0.19-0.57C3.06,2.9,5.86,1.5,8.66,0.11c0.08-0.04,0.19-0.07,0.28-0.07c0.97-0.01,1.94-0.02,2.92-0.02
	c0.56,0,1.11-0.01,1.67-0.02c0.19,0,0.3,0.07,0.38,0.24c0.33,0.68,0.67,1.36,1.01,2.04C15,2.44,15,2.57,14.89,2.72
	c-0.84,1.13-1.67,2.27-2.5,3.4C12.37,6.15,12.34,6.18,12.28,6.25z M1.73,5.11c0.09-0.03,0.14-0.05,0.2-0.08
	C3.97,4.01,6.01,3,8.05,1.98C8.23,1.9,8.4,1.81,8.57,1.71c0.1-0.06,0.13-0.15,0.08-0.25c-0.05-0.1-0.13-0.14-0.24-0.1
	C8.37,1.38,8.33,1.4,8.29,1.42C6.26,2.42,4.24,3.43,2.21,4.44C2.02,4.53,1.83,4.62,1.66,4.73C1.61,4.76,1.57,4.88,1.58,4.95
	C1.59,5.01,1.68,5.06,1.73,5.11z M3.85,9.37c0.1-0.04,0.19-0.07,0.26-0.11c2.11-1.05,4.22-2.1,6.33-3.15
	c0.09-0.05,0.2-0.08,0.27-0.15c0.05-0.05,0.08-0.18,0.05-0.24c-0.03-0.06-0.14-0.08-0.23-0.09c-0.05-0.01-0.1,0.04-0.15,0.06
	C8.24,6.76,6.09,7.83,3.95,8.9C3.88,8.93,3.8,8.95,3.77,9C3.72,9.06,3.69,9.15,3.71,9.22C3.72,9.27,3.8,9.32,3.85,9.37z M9.15,4.97
	c-0.3-0.61-0.6-1.23-0.91-1.86C8.14,3.16,8.05,3.2,7.95,3.25C8.17,3.69,8.38,4.13,8.6,4.57C8.15,4.3,7.73,4.03,7.3,3.77
	C7.09,3.64,7.02,3.65,6.82,3.83c0.29,0.6,0.58,1.19,0.87,1.79C7.7,5.64,7.72,5.65,7.74,5.68c0.09-0.05,0.18-0.09,0.27-0.14
	c-0.23-0.46-0.44-0.9-0.67-1.37c0.46,0.29,0.9,0.55,1.32,0.83C8.85,5.13,8.99,5.12,9.15,4.97z M9.77,2.49
	c-0.44,0.02-0.78,0.22-1.1,0.44C8.64,2.94,8.63,3.02,8.64,3.05c0.27,0.56,0.54,1.12,0.82,1.67c0.02,0.03,0.09,0.07,0.12,0.06
	c0.31-0.12,0.61-0.25,0.86-0.49c0.6-0.58,0.13-1.6-0.44-1.76C9.91,2.51,9.82,2.5,9.77,2.49z M3.57,6.45c0.11-0.3,0.1-0.48-0.06-0.64
	c-0.18-0.18-0.4-0.19-0.62-0.1c-0.2,0.08-0.38,0.19-0.56,0.3C2.3,6.03,2.27,6.12,2.29,6.15c0.27,0.56,0.54,1.12,0.81,1.67
	C3.12,7.86,3.2,7.89,3.23,7.88C3.51,7.77,3.8,7.66,4.01,7.42c0.27-0.3,0.15-0.8-0.23-0.92C3.72,6.48,3.65,6.47,3.57,6.45z
	 M5.08,5.86c0.03-0.07,0.06-0.12,0.08-0.18c0.12-0.35-0.15-0.74-0.51-0.74C4.28,4.95,4,5.16,3.7,5.35c0.31,0.63,0.6,1.24,0.9,1.85
	c0.05-0.02,0.08-0.02,0.11-0.04c0.2-0.09,0.2-0.09,0.1-0.29c-0.09-0.2-0.19-0.39-0.28-0.59C4.88,6.07,5,6.09,5.24,6.39
	c0.05,0.06,0.1,0.13,0.16,0.19c0.17,0.19,0.25,0.19,0.45-0.01C5.58,6.35,5.46,5.98,5.08,5.86z M7.51,5.77
	C7.5,5.76,7.5,5.74,7.49,5.73C7,5.24,6.52,4.75,6.03,4.27C5.92,4.16,5.83,4.3,5.74,4.33C5.7,4.34,5.66,4.43,5.66,4.47
	c0.07,0.6,0.15,1.2,0.22,1.8C5.9,6.37,5.91,6.45,5.93,6.55c0.31-0.1,0.31-0.1,0.27-0.4C6.2,6.1,6.19,6.05,6.18,6
	C6.14,5.75,6.14,5.75,6.36,5.65c0.12-0.06,0.26-0.18,0.37-0.16c0.12,0.02,0.21,0.17,0.31,0.27C7.24,5.96,7.27,5.96,7.51,5.77z
	 M12.07,6.77c-0.02,0.02-0.04,0.08-0.03,0.11c0.21,0.73,0.5,1.43,1.03,2c0.52,0.55,1.19,0.67,1.86,0.32
	c0.91-0.46,1.22-1.26,1.1-2.27c-0.08-0.67-0.32-1.3-0.63-1.9c-0.26-0.49-0.56-0.97-0.86-1.49c-0.1,0.16-0.16,0.27-0.24,0.38
	c-0.05,0.07-0.04,0.13,0.01,0.2c0.18,0.27,0.36,0.54,0.51,0.82c0.38,0.69,0.69,1.41,0.76,2.21c0.07,0.82-0.37,1.5-1.11,1.72
	c-0.29,0.08-0.57,0.06-0.79-0.13c-0.22-0.19-0.41-0.4-0.57-0.64c-0.32-0.49-0.51-1.05-0.68-1.64C12.3,6.57,12.19,6.66,12.07,6.77z
	 M10.38,3.7c0.03-0.3-0.2-0.72-0.45-0.84c-0.25-0.12-0.66-0.03-0.91,0.2c0.22,0.45,0.44,0.9,0.66,1.36
	C10.04,4.28,10.34,4.12,10.38,3.7z M3.8,7.13C3.83,6.99,3.78,6.86,3.65,6.8C3.43,6.68,3.24,6.8,3.03,6.91
	c0.1,0.21,0.2,0.42,0.31,0.63C3.54,7.44,3.75,7.38,3.8,7.13z M3.33,6.25c0.01-0.08-0.07-0.21-0.14-0.25
	C2.99,5.9,2.83,6.04,2.65,6.13C2.74,6.31,2.82,6.48,2.9,6.65C3.1,6.57,3.32,6.5,3.33,6.25z M4.87,5.59
	c0.01-0.14-0.05-0.26-0.19-0.32C4.47,5.19,4.3,5.31,4.12,5.42c0.1,0.2,0.19,0.4,0.29,0.6C4.62,5.92,4.85,5.86,4.87,5.59z M6,4.74
	C6.03,4.96,6.07,5.2,6.1,5.46c0.16-0.08,0.29-0.14,0.44-0.22C6.35,5.06,6.18,4.9,6,4.74z"/>
</svg>
