<?xml version="1.0" encoding="utf-8"?>
<!-- Generator: Adobe Illustrator 23.0.5, SVG Export Plug-In . SVG Version: 6.00 Build 0)  -->
<svg version="1.1" id="Layer_1" xmlns="http://www.w3.org/2000/svg" xmlns:xlink="http://www.w3.org/1999/xlink" x="0px" y="0px"
	 viewBox="0 0 16.06 10.41" style="enable-background:new 0 0 16.06 10.41;" xml:space="preserve">
<style type="text/css">
	.st0{fill:#525252;}
	.st1{fill:#525252;stroke:#525252;stroke-miterlimit:10;}
</style>
<path class="st0" d="M14.13,9.35c-0.16-1.03-0.69-1.57-1.53-1.56c-0.82,0.01-1.36,0.57-1.48,1.55c-2.11,0-4.22,0-6.34,0
	C4.76,8.88,4.58,8.5,4.22,8.21c-0.3-0.24-0.65-0.33-1.03-0.32c-0.76,0.03-1.3,0.58-1.41,1.44c-0.51,0.1-0.87-0.06-1.16-0.52
	c-0.26-0.42-0.4-0.88-0.49-1.36C0.07,7.15,0.04,6.86,0.01,6.56c-0.02-0.2,0.03-0.3,0.23-0.35c0.19-0.04,0.38-0.07,0.57-0.08
	c0.3-0.01,0.6,0.01,0.9-0.01C2.02,6.09,2.21,5.83,2.48,5.7c0.96-0.46,1.97-0.72,3.02-0.85c1.76-0.21,3.46,0.06,5.07,0.78
	c0.38,0.17,0.74,0.41,1.11,0.61c0.1,0.05,0.23,0.08,0.35,0.09c0.86,0.08,1.71,0.21,2.55,0.45c0.5,0.14,0.95,0.38,1.37,0.68
	c0.05,0.04,0.11,0.12,0.11,0.17c0,0.28-0.01,0.56-0.03,0.84c-0.02,0.17-0.12,0.3-0.27,0.39C15.26,9.17,14.73,9.38,14.13,9.35z
	 M6.8,5.33C6.37,5.36,5.97,5.38,5.57,5.42C4.88,5.49,4.2,5.58,3.55,5.84C3.39,5.91,3.24,6,3.08,6.08c0,0.02,0.01,0.03,0.01,0.05
	c1.23,0.06,2.46,0.13,3.7,0.19C6.8,5.99,6.8,5.68,6.8,5.33z M10.96,6.53C9.87,5.94,8.74,5.5,7.49,5.37c0,0.34,0,0.66,0,0.98
	C8.66,6.41,9.81,6.47,10.96,6.53z M12.7,5.91c-0.01-0.59-0.25-0.95-0.73-1.08c-0.45-0.12-0.86,0.07-1.15,0.57
	C7.91,4.12,5.01,4.17,2.09,5.54C2.02,5.38,1.9,5.2,1.86,5.01c-0.1-0.44-0.18-0.89-0.24-1.34c-0.03-0.2,0.03-0.29,0.24-0.31
	C2.16,3.32,2.46,3.3,2.77,3.3c0.2,0,0.36-0.05,0.53-0.16c0.62-0.41,1.33-0.62,2.05-0.76c1.74-0.35,3.41-0.12,5.01,0.66
	c0.08,0.04,0.16,0.07,0.22,0.12c0.3,0.25,0.66,0.31,1.03,0.35c0.47,0.05,0.94,0.15,1.4,0.24c0.48,0.09,0.92,0.31,1.32,0.59
	c0.07,0.05,0.12,0.15,0.13,0.23c0.02,0.13,0.01,0.26,0,0.39c-0.01,0.28-0.13,0.49-0.39,0.62C13.64,5.81,13.21,5.99,12.7,5.91z
	 M4.13,3.24c0,0.02,0.01,0.04,0.01,0.06c1.16,0.06,2.31,0.12,3.47,0.18c0-0.27,0-0.53,0-0.81C6.41,2.68,5.23,2.7,4.13,3.24z
	 M10.36,3.62C9.63,3.21,8.87,2.9,8.04,2.76c0,0.26,0,0.5,0,0.75C8.82,3.54,9.59,3.58,10.36,3.62z M3.34,2.73
	c-0.25-0.32-0.33-0.71-0.4-1.1C2.92,1.48,2.91,1.32,2.89,1.16c-0.02-0.15,0.05-0.25,0.2-0.26c0.28-0.02,0.56-0.03,0.84-0.05
	c0.06,0,0.13-0.01,0.17-0.04c0.51-0.37,1.1-0.55,1.7-0.68c1.4-0.3,2.74-0.13,4.02,0.48c0.11,0.05,0.22,0.09,0.31,0.17
	C10.39,1.02,10.71,1,11,1.04c0.56,0.08,1.12,0.15,1.63,0.41c0.07,0.03,0.14,0.06,0.19,0.1c0.11,0.08,0.3,0.16,0.31,0.26
	c0.03,0.21-0.02,0.44-0.04,0.67c0,0.02-0.02,0.05-0.04,0.07c-0.34,0.27-0.72,0.44-1.16,0.43c-0.1-0.6-0.33-0.89-0.76-0.97
	c-0.41-0.07-0.73,0.11-1.02,0.59C7.85,1.65,5.6,1.71,3.34,2.73z M7.2,0.99c0-0.22,0-0.42,0-0.63C7,0.37,6.8,0.38,6.61,0.4
	C6.11,0.45,5.6,0.51,5.12,0.69c-0.1,0.04-0.19,0.09-0.29,0.14c0.01,0.01,0.01,0.02,0.02,0.04C5.63,0.91,6.41,0.95,7.2,0.99z
	 M9.82,1.12c0-0.01,0-0.03,0.01-0.04C9.18,0.74,8.5,0.49,7.77,0.4c0,0.22,0,0.41,0,0.62C8.46,1.05,9.14,1.08,9.82,1.12z M3.29,8.33
	c0.58,0,1.04,0.48,1.04,1.05c0,0.58-0.47,1.04-1.05,1.04c-0.57,0-1.04-0.48-1.04-1.05C2.24,8.79,2.72,8.32,3.29,8.33z M3.29,8.93
	c-0.25,0-0.45,0.2-0.45,0.45c0,0.24,0.2,0.44,0.44,0.44c0.24,0,0.44-0.19,0.45-0.44C3.73,9.13,3.54,8.93,3.29,8.93z M13.66,9.28
	c0,0.57-0.47,1.05-1.04,1.05c-0.58,0-1.04-0.47-1.04-1.04c0-0.58,0.46-1.05,1.04-1.05C13.19,8.23,13.66,8.7,13.66,9.28z M12.62,8.84
	c-0.24,0-0.44,0.19-0.45,0.44c-0.01,0.25,0.2,0.45,0.45,0.45c0.25,0,0.45-0.2,0.45-0.45C13.07,9.03,12.86,8.84,12.62,8.84z
	 M11.61,5.84C11.8,6,12.02,6.03,12.25,6.06c0.1,0.01,0.14-0.01,0.16-0.12c0.06-0.34-0.15-0.68-0.49-0.79
	c-0.34-0.11-0.67,0.04-0.82,0.39C11.28,5.64,11.46,5.72,11.61,5.84z M11.09,3.12c0.1,0.05,0.26,0.08,0.35,0.03
	c0.07-0.04,0.1-0.21,0.09-0.32c-0.01-0.28-0.23-0.49-0.51-0.52c-0.27-0.03-0.5,0.13-0.59,0.41C10.66,2.86,10.86,3.01,11.09,3.12z"/>
</svg>
