<?xml version="1.0" encoding="utf-8"?>
<!-- Generator: Adobe Illustrator 23.0.5, SVG Export Plug-In . SVG Version: 6.00 Build 0)  -->
<svg version="1.1" id="Layer_1" xmlns="http://www.w3.org/2000/svg" xmlns:xlink="http://www.w3.org/1999/xlink" x="0px" y="0px"
	 viewBox="0 0 15.89 17.25" style="enable-background:new 0 0 15.89 17.25;" xml:space="preserve">
<style type="text/css">
	.st0{fill:#525252;}
	.st1{fill:#525252;stroke:#525252;stroke-miterlimit:10;}
</style>
<path class="st0" d="M12.75,14.49c-0.32-0.9-0.85-1.65-1.58-2.25c-2.27-1.84-5.49-1.48-7.29,0.82c-0.3,0.39-0.53,0.82-0.71,1.29
	c-0.04,0.1-0.01,0.14,0.07,0.2c0.42,0.31,0.6,0.73,0.53,1.24c-0.07,0.53-0.37,0.89-0.88,1.06c-0.58,0.19-1.17,0.39-1.8,0.37
	c-0.48-0.01-0.78-0.21-0.93-0.67C0.07,16.25,0,15.92,0,15.59c-0.01-0.97,0.15-1.91,0.53-2.8c0.42-0.98,1.12-1.74,1.98-2.36
	C3.46,9.74,4.5,9.25,5.63,8.95c0.08-0.02,0.19,0,0.25,0.04c1.26,0.86,2.78,0.86,4.02,0c0.06-0.04,0.15-0.07,0.22-0.06
	c1.55,0.42,2.96,1.11,4.11,2.25c0.88,0.86,1.38,1.92,1.55,3.14c0.09,0.61,0.16,1.22,0.04,1.84c-0.02,0.12-0.06,0.24-0.1,0.36
	c-0.2,0.55-0.58,0.8-1.16,0.71c-0.53-0.08-1.06-0.2-1.58-0.36c-0.48-0.15-0.78-0.51-0.86-1.01c-0.08-0.51,0.09-0.95,0.5-1.27
	C12.67,14.56,12.71,14.53,12.75,14.49z M4.7,7.09c1.28,1.73,3.66,2.17,5.46,0.99c2.03-1.33,2.57-4.25,1.17-6.24
	C10.1,0.1,7.98-0.49,6.17,0.44C4.6,1.25,3.88,2.62,3.8,4.17C3.81,5.36,4.1,6.27,4.7,7.09z M7.1,14.83c0.03,0.02,0.09,0.03,0.13,0.01
	c0.51-0.24,1.01-0.22,1.52,0.06c0.58-0.56,1.16-1.12,1.74-1.69c-1.31-1.2-3.55-1.36-5.09-0.03C5.97,13.74,6.53,14.29,7.1,14.83z
	 M9.46,17.07c0.64-0.08,1.27-0.15,1.9-0.25c0.49-0.08,0.5-0.1,0.51-0.59c0.02-0.94-0.28-1.77-0.86-2.52
	c-0.57,0.56-1.13,1.1-1.69,1.66c-0.03,0.03-0.03,0.14,0,0.19c0.14,0.33,0.19,0.66,0.09,1c-0.05,0.18-0.14,0.34-0.22,0.52
	C9.29,17.07,9.37,17.08,9.46,17.07z M4.83,13.77c-0.66,0.84-0.91,1.79-0.82,2.85c0.01,0.12,0.07,0.14,0.17,0.16
	c0.46,0.07,0.92,0.16,1.38,0.22c0.37,0.05,0.73,0.07,1.1,0.1c0.01-0.04,0.01-0.04,0.01-0.05c-0.03-0.05-0.05-0.1-0.08-0.15
	c-0.2-0.38-0.27-0.78-0.1-1.17c0.12-0.27,0.07-0.42-0.15-0.57c-0.02-0.01-0.04-0.03-0.05-0.05c-0.47-0.46-0.93-0.91-1.4-1.37
	C4.85,13.75,4.84,13.76,4.83,13.77z M7.17,16.17c-0.01,0.42,0.35,0.78,0.77,0.78c0.41,0,0.76-0.35,0.76-0.77
	c0-0.42-0.34-0.76-0.76-0.76C7.52,15.42,7.18,15.76,7.17,16.17z"/>
</svg>
