<?xml version="1.0" encoding="utf-8"?>
<!-- Generator: Adobe Illustrator 23.0.5, SVG Export Plug-In . SVG Version: 6.00 Build 0)  -->
<svg version="1.1" id="Layer_1" xmlns="http://www.w3.org/2000/svg" xmlns:xlink="http://www.w3.org/1999/xlink" x="0px" y="0px"
	 viewBox="0 0 15.99 15.98" style="enable-background:new 0 0 15.99 15.98;" xml:space="preserve">
<style type="text/css">
	.st0{fill:#525252;}
	.st1{fill:#525252;stroke:#525252;stroke-miterlimit:10;}
</style>
<path class="st0" d="M0,8c0.01-4.47,3.57-8.01,8.05-8c4.41,0.01,7.96,3.61,7.94,8.06c-0.02,4.43-3.61,7.93-8.12,7.92
	C3.55,15.97-0.01,12.37,0,8z M1.62,8.1c0,3.53,2.86,6.41,6.38,6.41c3.49-0.01,6.37-2.86,6.37-6.31c0-3.59-2.82-6.45-6.37-6.45
	C4.49,1.74,1.62,4.6,1.62,8.1z M12.98,8.23c-0.48,0.23-0.94,0.41-1.37,0.66C10.2,9.73,9.36,11,9.07,12.61
	c-0.06,0.35-0.2,0.45-0.53,0.43C8.04,13.01,7.53,13.03,7,13.03c-0.17-1.28-0.65-2.38-1.53-3.28C4.88,9.14,4.18,8.69,3.38,8.43
	c-0.3-0.1-0.4-0.23-0.35-0.55C3.16,7.04,3.28,6.2,3.38,5.36C3.41,5.09,3.51,5.02,3.76,5c2.81-0.18,5.63-0.2,8.44,0.02
	c0.14,0.01,0.36,0.17,0.38,0.29C12.74,6.28,12.85,7.27,12.98,8.23z M9.3,7.98C9.31,7.27,8.7,6.65,8,6.65c-0.71,0-1.32,0.6-1.32,1.31
	C6.67,8.67,7.27,9.27,7.99,9.28C8.72,9.28,9.29,8.71,9.3,7.98z M12.84,5.16c0.13,1,0.27,2.01,0.41,3.05
	c0.25-0.03,0.45-0.01,0.62-0.08c0.11-0.04,0.25-0.22,0.23-0.3c-0.2-0.83-0.41-1.66-0.67-2.48c-0.04-0.14-0.3-0.22-0.45-0.33
	C12.93,5.06,12.88,5.11,12.84,5.16z M2.6,5.24C2.12,6.12,1.87,7.07,1.87,8.1c0.3,0.03,0.56,0.06,0.87,0.1
	c0.14-1.05,0.27-2.06,0.43-3.22C2.9,5.1,2.67,5.13,2.6,5.24z M9.01,14.17c-0.01-0.32-0.03-0.57-0.04-0.85c-0.66,0-1.28,0-1.95,0
	C7,13.59,6.98,13.84,6.96,14.17C7.67,14.17,8.33,14.17,9.01,14.17z"/>
</svg>
