<?xml version="1.0" encoding="utf-8"?>
<!-- Generator: Adobe Illustrator 23.0.5, SVG Export Plug-In . SVG Version: 6.00 Build 0)  -->
<svg version="1.1" id="Layer_1" xmlns="http://www.w3.org/2000/svg" xmlns:xlink="http://www.w3.org/1999/xlink" x="0px" y="0px"
	 viewBox="0 0 15.95 14.61" style="enable-background:new 0 0 15.95 14.61;" xml:space="preserve">
<style type="text/css">
	.st0{fill:#525252;}
	.st1{fill:#525252;stroke:#525252;stroke-miterlimit:10;}
</style>
<path class="st0" d="M15.95,1.74c0,3.92,0,7.84,0,11.76c-0.21,0.7-0.66,1.1-1.41,1.1c-3.72,0-7.44,0.01-11.16-0.01
	c-1.45-0.01-2.57-0.96-2.8-2.32c-0.13-0.77-0.2-1.54-0.3-2.31C0.19,9.32,0.09,8.68,0,8.05c0-0.24,0-0.47,0-0.71
	c0.02-0.05,0.05-0.1,0.06-0.16c0.11-0.79,0.41-1.5,0.93-2.1C2.1,3.82,3.2,2.56,4.34,1.32C5.07,0.53,6,0.05,7.08,0.03
	c2.3-0.04,4.6-0.04,6.9-0.01c0.35,0,0.73,0.17,1.05,0.35C15.56,0.66,15.78,1.19,15.95,1.74z M1.96,7.29c4.07,0,8.02,0,11.98,0
	c0-1.77,0-3.52,0-5.28C13.85,2,13.77,1.97,13.69,1.97c-2.09,0-4.18-0.01-6.27,0c-0.64,0-1.22,0.22-1.65,0.7
	c-1.12,1.24-2.23,2.5-3.33,3.76C2.25,6.67,2.14,6.97,1.96,7.29z M8.31,11.94c1.95,0,3.9,0,5.84,0c0.24,0,0.44-0.03,0.45-0.32
	c0-0.28-0.2-0.34-0.44-0.34c-0.06,0-0.12,0-0.18,0c-3.79,0-7.58,0-11.37,0c-0.12,0-0.26-0.03-0.35,0.02
	c-0.12,0.08-0.25,0.22-0.26,0.34c-0.01,0.09,0.17,0.21,0.28,0.28c0.07,0.04,0.18,0.01,0.28,0.01C4.49,11.94,6.4,11.94,8.31,11.94z
	 M13.3,9.96c0.32,0,0.64,0.03,0.95-0.01c0.13-0.02,0.31-0.17,0.35-0.3c0.06-0.22-0.11-0.35-0.33-0.36c-0.65-0.01-1.29-0.01-1.94,0
	c-0.21,0-0.37,0.11-0.36,0.35c0.01,0.23,0.15,0.33,0.38,0.33C12.66,9.96,12.98,9.96,13.3,9.96z M8.41,2.69
	c-0.13-0.01-0.31,0.04-0.4,0.14C7.38,3.43,6.77,4.06,6.15,4.68C5.99,4.84,5.92,5.02,6.09,5.2c0.18,0.18,0.36,0.1,0.52-0.06
	C7.23,4.51,7.85,3.9,8.47,3.28C8.55,3.2,8.59,3.09,8.68,2.96C8.58,2.85,8.5,2.7,8.41,2.69z M7.13,2.72
	C7.01,2.68,6.84,2.69,6.75,2.76c-0.24,0.19-0.46,0.4-0.64,0.65C6.03,3.51,6.09,3.72,6.08,3.88c0.16-0.01,0.36,0.05,0.47-0.03
	C6.8,3.67,7,3.43,7.21,3.21c0.05-0.06,0.07-0.14,0.13-0.25C7.27,2.88,7.21,2.74,7.13,2.72z"/>
</svg>
