<?xml version="1.0" encoding="utf-8"?>
<!-- Generator: Adobe Illustrator 23.0.5, SVG Export Plug-In . SVG Version: 6.00 Build 0)  -->
<svg version="1.1" id="Layer_1" xmlns="http://www.w3.org/2000/svg" xmlns:xlink="http://www.w3.org/1999/xlink" x="0px" y="0px"
	 viewBox="0 0 258.37 192.61" style="enable-background:new 0 0 258.37 192.61;" xml:space="preserve">
<style type="text/css">
	.st0{fill:#FFFFFF;}
	.st1{display:none;fill:#F5BD1F;}
	.st2{fill:#F5BD1F;}
	.st3{fill:#68562B;}
	.st4{fill:#606060;}
	.st5{fill:#2A2A2A;}
	.st6{fill:none;stroke:#F5BD1F;stroke-miterlimit:10;}
	.st7{fill:none;stroke:#FFFFFF;stroke-miterlimit:10;}
	.st8{display:none;opacity:0.46;fill:#E0B8B8;}
</style>
<g>
	<path class="st2" d="M139.42,127.07c-2.82,4.82-4.82,8.9-7.42,12.56c-12.71,17.91-28.1,32.81-48.65,41.48
		c-23.68,9.99-49.25,7.87-66.58-10.7C5.66,158.5,1.22,143.91,0,127.1c3.71,0,7.03-0.41,10.16,0.19c1.39,0.27,2.93,2.4,3.46,4
		c3.61,10.93,9.78,19.73,20.02,25.38c9.17,5.06,19.05,6.04,28.99,3.82c17.57-3.93,31.43-14.04,42.36-28.06
		c3.08-3.95,6.18-5.75,11.2-5.46C123.48,127.38,130.79,127.07,139.42,127.07z M30.01,58.02C41.13,42.4,55.08,30.48,74.32,25.93
		c25.59-6.06,47.8,8.8,52.12,34.74c0.27,1.59,2.35,4.03,3.68,4.1c7.93,0.39,15.89,0.19,23.7,0.19c1.99-7.03-3.24-24.64-7.89-32.64
		C130.49,5.74,101.61-0.62,74.75,9.46c-15.29,5.74-28,15.16-39.13,26.98c-7.83,8.32-14.51,17.38-19.86,27.62
		C23.29,67.21,26.5,62.94,30.01,58.02z M110.66,0.46c23.86,5.32,38.87,20.1,45.77,43.24c1.79,6,2.54,12.31,3.86,18.45
		c1.08,5.01,5.12,2.25,7.83,2.59c0.65,0.08,2.45-2.47,2.32-3.66c-1.53-14.2-5.33-27.63-14.36-39.08
		c-11.8-14.95-27.23-22.46-46.25-21.98C110.11,0.17,110.37,0.39,110.66,0.46z M155.12,127.23c-3.76,0.58-8.04-2.29-10.82,2.46
		c-2.08,3.55-3.96,7.23-6.26,10.62c-17.65,25.98-40.06,45.39-71.74,51.65C91.67,198.19,147.56,157.74,155.12,127.23z M159.42,132.32
		c-6.09,11.94-13.77,22.75-23.41,32.11c-5.04,4.89-10.17,9.67-15.27,14.51c21.84-11.64,37.47-29.1,48.84-51.11
		C163.7,125.61,161.39,128.45,159.42,132.32z M163.55,22.26c0.57,1.06,0.91,1.73,1.29,2.38c6.45,11.2,10.18,23.26,11.09,36.13
		c0.34,4.85,3.29,4.5,6.88,3.87C185.1,53.64,173.07,26.26,163.55,22.26z"/>
	<path class="st2" d="M121.95,111.15c-2.48,0-4.59-0.87-6.36-2.6s-2.64-3.82-2.64-6.25V90.27c0-2.44,0.88-4.51,2.64-6.24
		c1.76-1.72,3.88-2.58,6.36-2.58h33.3c0.08,0,0.14,0.02,0.18,0.06c0.04,0.04,0.06,0.1,0.06,0.18v5.94c0,0.06-0.02,0.11-0.06,0.16
		c-0.04,0.05-0.1,0.07-0.18,0.07h-33.3c-0.44,0-0.82,0.16-1.14,0.48s-0.49,0.69-0.49,1.13v13.63c0,0.46,0.16,0.84,0.49,1.14
		s0.71,0.46,1.14,0.46h33.3c0.08,0,0.14,0.03,0.18,0.07c0.04,0.05,0.06,0.11,0.06,0.19v5.94c0,0.06-0.02,0.11-0.06,0.16
		c-0.04,0.05-0.1,0.07-0.18,0.07H121.95z M171.77,102.15v8.76c0,0.06-0.03,0.11-0.07,0.16c-0.05,0.05-0.1,0.07-0.16,0.07h-6.86
		c-0.08,0-0.14-0.02-0.19-0.07c-0.05-0.05-0.07-0.1-0.07-0.16V90.27c0-2.44,0.88-4.51,2.64-6.24c1.76-1.72,3.88-2.58,6.36-2.58
		h24.56c2.47,0,4.59,0.86,6.34,2.58c1.75,1.72,2.63,3.8,2.63,6.24v20.64c0,0.06-0.02,0.11-0.06,0.16c-0.04,0.05-0.1,0.07-0.18,0.07
		h-6.86c-0.08,0-0.14-0.02-0.18-0.07c-0.04-0.05-0.06-0.1-0.06-0.16v-8.76H171.77z M199.6,89.47c0-0.43-0.16-0.81-0.49-1.13
		c-0.33-0.32-0.71-0.48-1.14-0.48H173.4c-0.44,0-0.82,0.16-1.14,0.48c-0.33,0.32-0.49,0.69-0.49,1.13v6.27h27.83V89.47z
		 M253.5,100.79l4.84,10.04c0.04,0.08,0.03,0.15-0.01,0.22c-0.05,0.07-0.12,0.1-0.22,0.1h-7.54c-0.1,0-0.17-0.04-0.21-0.12
		l-4.4-9.12h-22.84v9c0,0.08-0.02,0.14-0.06,0.18c-0.04,0.04-0.1,0.06-0.18,0.06h-6.8c-0.08,0-0.14-0.02-0.18-0.06
		c-0.04-0.04-0.06-0.1-0.06-0.18V81.69c0-0.06,0.02-0.11,0.06-0.16c0.04-0.05,0.1-0.07,0.18-0.07h33.03c2.46,0,4.55,0.86,6.3,2.58
		c1.74,1.72,2.61,3.81,2.61,6.27v2.79c0,1.6-0.4,3.08-1.2,4.44C256.01,98.89,254.91,99.98,253.5,100.79z M223.12,87.87v7.63h25.99
		c0.44,0,0.82-0.15,1.14-0.46c0.33-0.31,0.49-0.69,0.49-1.14v-4.4c0-0.46-0.16-0.84-0.49-1.16c-0.33-0.32-0.71-0.48-1.14-0.48
		H223.12z"/>
	<g>
		<path class="st6" d="M73.34,88.56l-10.56,23.38c-1.19,2.65-2.69,4.49-4.49,5.51c-1.8,1.03-4.61,1.54-8.43,1.54H28.37
			c-2.13,0-3.8-0.47-5.03-1.41s-1.84-2.23-1.84-3.85c0-0.48,0.07-0.97,0.2-1.49c0.13-0.51,0.33-1.04,0.59-1.59l14.97-33.01
			c1.22-2.65,2.71-4.49,4.48-5.51c1.77-1.03,4.57-1.54,8.41-1.54h21.48c2.15,0,3.84,0.48,5.07,1.43s1.84,2.27,1.84,3.94
			c0,0.41-0.07,0.87-0.21,1.38c-0.14,0.51-0.35,1.06-0.61,1.63l-1,2.26H56.01c-1.22,0-2.22,0.25-3.01,0.75
			c-0.79,0.5-1.42,1.28-1.9,2.33l-9.31,20.91c-0.1,0.19-0.17,0.38-0.21,0.57c-0.05,0.19-0.07,0.39-0.07,0.61
			c0,0.62,0.26,1.1,0.79,1.45c0.53,0.35,1.27,0.52,2.22,0.52c1.22,0,2.21-0.24,2.99-0.73c0.78-0.49,1.41-1.27,1.92-2.35l2.79-6.09
			h-4.05L53,88.56H73.34z"/>
	</g>
	<path class="st6" d="M101.47,100.41H84.19c-1.4,0-2.54-1.14-2.54-2.54v0c0-1.4,1.14-2.54,2.54-2.54h17.28
		c1.4,0,2.54,1.14,2.54,2.54v0C104.01,99.28,102.87,100.41,101.47,100.41z"/>
</g>
</svg>
